<?xml version="1.0" encoding="UTF-8" standalone="no"?>
<!-- Generator: Adobe Illustrator 24.0.0, SVG Export Plug-In . SVG Version: 6.00 Build 0)  -->

<svg
   version="1.1"
   id="Layer_1"
   x="0px"
   y="0px"
   viewBox="0 0 300 346.5704"
   width="300"
   height="346.5704"
   xml:space="preserve"
   sodipodi:docname="chaijs.svg"
   inkscape:version="1.1.1 (3bf5ae0d25, 2021-09-20, custom)"
   xmlns:inkscape="http://www.inkscape.org/namespaces/inkscape"
   xmlns:sodipodi="http://sodipodi.sourceforge.net/DTD/sodipodi-0.dtd"
   xmlns="http://www.w3.org/2000/svg"
   xmlns:svg="http://www.w3.org/2000/svg"><defs
   id="defs20" /><sodipodi:namedview
   id="namedview18"
   pagecolor="#ffffff"
   bordercolor="#666666"
   borderopacity="1.0"
   inkscape:pageshadow="2"
   inkscape:pageopacity="0.0"
   inkscape:pagecheckerboard="0"
   showgrid="false"
   fit-margin-top="0"
   fit-margin-left="0"
   fit-margin-right="0"
   fit-margin-bottom="0"
   inkscape:zoom="11.359375"
   inkscape:cx="27.686382"
   inkscape:cy="31.955983"
   inkscape:window-width="3440"
   inkscape:window-height="1383"
   inkscape:window-x="0"
   inkscape:window-y="29"
   inkscape:window-maximized="1"
   inkscape:current-layer="Layer_1" />
<style
   type="text/css"
   id="style2">
	.st0{fill:#A1070C;}
	.st1{fill:url(#SVGID_1_);}
</style>
<g
   id="g15"
   transform="matrix(5.4151625,0,0,5.4151625,-23.285199,0)">
	<path
   class="st0"
   d="M 6.7,46.6 32,61.2 57.3,46.6 V 17.4 L 32,2.8 6.7,17.4 Z M 32,64 4.3,48 V 16 L 32,0 59.7,16 v 32 z"
   id="path4" />
	
		<linearGradient
   id="SVGID_1_"
   gradientUnits="userSpaceOnUse"
   x1="-527.66748"
   y1="1029.4197"
   x2="-527.66748"
   y2="1029.3011"
   gradientTransform="matrix(236.842,0,0,-273.481,125005.84,281555.88)">
		<stop
   offset="0"
   style="stop-color:#F7F6F3"
   id="stop6" />
		<stop
   offset="1"
   style="stop-color:#FEF6D5"
   id="stop8" />
	</linearGradient>
	<path
   class="st1"
   d="M 6.4,17.2 32,2.4 57.6,17.2 V 46.8 L 32,61.6 6.4,46.8 V 17.2"
   id="path11"
   style="fill:url(#SVGID_1_)" />
	<path
   class="st0"
   d="m 43.8,21.2 c 0,1.2 -0.2,2.3 -0.7,3.5 -0.5,1.1 -1.1,2.2 -1.8,3.2 -0.8,1 -1.7,1.8 -2.7,2.6 -1,0.7 -2.1,1.3 -3.1,1.6 L 35,31.3 c 0.6,-0.3 1.2,-0.7 1.8,-1.2 0.5,-0.5 1,-1.1 1.4,-1.7 0.4,-0.6 0.7,-1.3 0.9,-2 0.2,-0.7 0.3,-1.4 0.3,-2.2 0,-0.8 -0.1,-1.6 -0.4,-2.4 -0.2,-0.7 -0.6,-1.4 -1.1,-2 -0.5,-0.6 -1.1,-1 -1.8,-1.3 -0.7,-0.3 -1.5,-0.5 -2.4,-0.5 -1.1,0 -2.1,0.2 -3,0.6 -0.9,0.4 -1.7,1 -2.5,1.7 -0.8,0.7 -1.4,1.6 -1.9,2.5 -0.5,0.9 -1,1.9 -1.4,3 -0.4,1 -0.6,2.1 -0.8,3.1 -0.2,1.1 -0.3,2.1 -0.3,3 0,0.9 0.1,1.9 0.3,2.9 0.2,1 0.5,2 0.9,3 0.4,1 0.9,1.9 1.4,2.8 0.6,0.9 1.2,1.6 2,2.3 0.7,0.7 1.6,1.2 2.5,1.6 0.9,0.4 1.9,0.6 3,0.6 0.7,0 1.4,-0.1 2.1,-0.3 0.7,-0.2 1.4,-0.5 2,-0.8 0.6,-0.3 1.3,-0.7 1.8,-1.2 0.6,-0.5 1.1,-1 1.6,-1.5 l 0.8,0.7 c -0.7,0.9 -1.5,1.7 -2.4,2.6 -0.9,0.8 -1.9,1.5 -3,2.2 -1.1,0.6 -2.2,1.1 -3.4,1.5 -1.2,0.4 -2.3,0.6 -3.5,0.6 -1.1,0 -2.2,-0.2 -3.2,-0.6 -1,-0.4 -1.9,-0.9 -2.7,-1.6 -0.8,-0.7 -1.6,-1.4 -2.2,-2.3 -0.7,-0.9 -1.2,-1.8 -1.7,-2.9 -0.5,-1 -0.8,-2.1 -1,-3.1 -0.2,-1.1 -0.4,-2.1 -0.4,-3.1 0,-1.5 0.2,-3 0.7,-4.6 0.5,-1.6 1.2,-3.1 2.1,-4.6 0.9,-1.5 1.9,-2.9 3.1,-4.2 1.2,-1.3 2.5,-2.5 3.8,-3.4 1.4,-1 2.8,-1.8 4.3,-2.3 1.5,-0.6 3,-0.9 4.5,-0.9 0.9,0 1.8,0.1 2.6,0.4 0.8,0.3 1.5,0.7 2.1,1.2 0.6,0.5 1,1.1 1.4,1.9 0.3,0.5 0.5,1.4 0.5,2.4 z"
   id="path13" />
</g>
</svg>
