<?xml version="1.0" encoding="UTF-8" standalone="no"?>
<svg
   xmlns:dc="http://purl.org/dc/elements/1.1/"
   xmlns:cc="http://creativecommons.org/ns#"
   xmlns:rdf="http://www.w3.org/1999/02/22-rdf-syntax-ns#"
   xmlns:svg="http://www.w3.org/2000/svg"
   xmlns="http://www.w3.org/2000/svg"
   xmlns:sodipodi="http://sodipodi.sourceforge.net/DTD/sodipodi-0.dtd"
   xmlns:inkscape="http://www.inkscape.org/namespaces/inkscape"
   width="256px"
   height="225px"
   viewBox="0 0 256 225"
   version="1.1"
   preserveAspectRatio="xMidYMid"
   id="svg8"
   sodipodi:docname="eslint.svg"
   inkscape:version="0.92.4 5da689c313, 2019-01-14">
  <metadata
     id="metadata14">
    <rdf:RDF>
      <cc:Work
         rdf:about="">
        <dc:format>image/svg+xml</dc:format>
        <dc:type
           rdf:resource="http://purl.org/dc/dcmitype/StillImage" />
      </cc:Work>
    </rdf:RDF>
  </metadata>
  <defs
     id="defs12" />
  <sodipodi:namedview
     pagecolor="#ffffff"
     bordercolor="#666666"
     borderopacity="1"
     objecttolerance="10"
     gridtolerance="10"
     guidetolerance="10"
     inkscape:pageopacity="0"
     inkscape:pageshadow="2"
     inkscape:window-width="1249"
     inkscape:window-height="1019"
     id="namedview10"
     showgrid="false"
     inkscape:zoom="1.0488889"
     inkscape:cx="155.64831"
     inkscape:cy="265.04237"
     inkscape:window-x="1311"
     inkscape:window-y="27"
     inkscape:window-maximized="0"
     inkscape:current-layer="layer4" />
  <g
     inkscape:groupmode="layer"
     id="layer4"
     inkscape:label="White">
    <path
       style="fill:#ffffff;stroke-width:1.64856565"
       inkscape:connector-curvature="0"
       id="path2-6"
       d="M 47.994714,62.253473 128.31801,16.16965 c 2.01009,-1.153663 4.48784,-1.153663 6.49791,0 l 80.32497,46.083823 c 2.0084,1.153663 3.24895,3.284636 3.24895,5.591962 v 92.167655 c 0,2.30567 -1.24055,4.4383 -3.24895,5.59361 l -80.32497,46.08382 c -2.01007,1.15366 -4.48782,1.15366 -6.49791,0 L 47.994714,165.6067 c -2.010071,-1.15367 -3.248947,-3.2863 -3.248947,-5.59361 V 67.845435 c 0.0017,-2.307326 1.24053,-4.438299 3.248947,-5.591962" />
  </g>
  <g
     inkscape:groupmode="layer"
     id="layer2"
     inkscape:label="Main"
     style="display:inline">
    <path
       style="fill:#4b32c3"
       inkscape:connector-curvature="0"
       id="path4"
       d="M 254.4167,107.4166 196.32314,6.3498039 C 194.21291,2.6955294 190.31471,0 186.09525,0 H 69.906127 C 65.685668,0 61.786461,2.6955294 59.676231,6.3498039 L 1.5826723,107.19373 c -2.11022972,3.65527 -2.11022972,8.26829 0,11.92357 L 59.676231,219.35586 c 2.11023,3.65427 6.009437,5.52257 10.229896,5.52257 H 186.09425 c 4.21945,0 8.11866,-1.81208 10.22789,-5.46736 L 254.4157,119.00888 c 2.11223,-3.65327 2.11223,-7.93801 0.001,-11.59228 z m -48.1046,48.59984 c 0,1.4858 -0.89449,2.86017 -2.18252,3.60408 L 130.131,202.31429 c -1.28702,0.7429 -2.89931,0.7429 -4.18633,0 L 51.888861,159.62052 c -1.287019,-0.74391 -2.187531,-2.11727 -2.187531,-3.60408 V 70.62789 c 0,-1.486808 0.887461,-2.860172 2.175485,-3.604078 L 125.87239,24.330039 c 1.28702,-0.743906 2.8973,-0.743906 4.18432,0 l 74.06083,42.693773 c 1.28802,0.743906 2.19456,2.11727 2.19456,3.604078 z" />
  </g>
  <g
     inkscape:groupmode="layer"
     id="layer3"
     inkscape:label="Box">
    <path
       style="fill:#8080f2"
       inkscape:connector-curvature="0"
       id="path2"
       d="M 77.964594,80.568352 126.5349,52.526499 c 1.21547,-0.701999 2.71373,-0.701999 3.92919,0 l 48.57132,28.041853 C 180.24986,81.270351 181,82.567043 181,83.971041 v 56.083709 c 0,1.40299 -0.75014,2.70069 -1.96459,3.40369 l -48.57132,28.04185 c -1.21546,0.702 -2.71372,0.702 -3.92919,0 L 77.964594,143.45844 C 76.749133,142.75644 76,141.45874 76,140.05475 V 83.971041 c 0.001,-1.403998 0.750136,-2.70069 1.964594,-3.402689" />
  </g>
</svg>
