<?xml version="1.0" encoding="UTF-8" standalone="no"?>
<svg
   version="1.1"
   x="0px"
   y="0px"
   width="110"
   height="120"
   viewBox="0 0 110 120"
   enable-background="new 0 0 790 170"
   xml:space="preserve"
   id="svg125"
   xmlns="http://www.w3.org/2000/svg"
   xmlns:svg="http://www.w3.org/2000/svg"><defs
   id="defs129">
        
        
        
        
        
    </defs>
    <path
   fill="none"
   d="M 17.347,115.913"
   id="path106" /><rect
   x="0"
   y="0"
   fill="#6f3c97"
   width="110"
   height="120"
   id="rect108" /><g
   id="g114"
   transform="translate(0.103,-10)">
            <path
   fill="#ffffff"
   d="m 91.448,120.938 c -0.134,0.448 -0.358,0.849 -0.672,1.2 -0.313,0.353 -0.729,0.634 -1.248,0.845 -0.519,0.211 -1.161,0.317 -1.928,0.317 -1.28,0 -2.266,-0.336 -2.957,-1.009 -0.691,-0.672 -1.037,-1.66 -1.037,-2.966 v -0.845 h 1.824 v 0.576 c 0,0.396 0.032,0.762 0.096,1.094 0.064,0.333 0.176,0.621 0.336,0.864 0.16,0.243 0.385,0.432 0.672,0.566 0.288,0.135 0.656,0.201 1.104,0.201 0.832,0 1.404,-0.224 1.718,-0.672 0.313,-0.447 0.471,-1.049 0.471,-1.805 v -10.021 h 1.824 v 10.29 c -10e-4,0.463 -0.068,0.917 -0.203,1.365 z"
   id="path110" />
            <path
   fill="#ffffff"
   d="m 101.508,111.156 c -0.607,-0.441 -1.385,-0.662 -2.332,-0.662 -0.384,0 -0.762,0.038 -1.133,0.115 -0.371,0.077 -0.701,0.205 -0.988,0.384 -0.288,0.18 -0.519,0.42 -0.691,0.72 -0.173,0.301 -0.26,0.676 -0.26,1.123 0,0.423 0.125,0.766 0.375,1.027 0.249,0.263 0.582,0.478 0.998,0.644 0.416,0.166 0.886,0.304 1.411,0.412 0.524,0.109 1.059,0.228 1.604,0.355 0.543,0.128 1.077,0.278 1.603,0.451 0.524,0.173 0.995,0.406 1.411,0.701 0.416,0.294 0.749,0.665 0.998,1.113 0.25,0.448 0.375,1.011 0.375,1.689 0,0.729 -0.164,1.354 -0.49,1.872 -0.326,0.518 -0.745,0.94 -1.257,1.267 -0.513,0.326 -1.085,0.563 -1.719,0.71 -0.634,0.147 -1.264,0.222 -1.891,0.222 -0.769,0 -1.495,-0.097 -2.18,-0.288 -0.685,-0.192 -1.286,-0.483 -1.804,-0.874 -0.519,-0.39 -0.929,-0.89 -1.229,-1.497 -0.301,-0.608 -0.451,-1.328 -0.451,-2.16 h 1.729 c 0,0.576 0.111,1.072 0.336,1.488 0.224,0.416 0.519,0.758 0.883,1.026 0.365,0.27 0.79,0.468 1.276,0.596 0.486,0.128 0.985,0.191 1.498,0.191 0.409,0 0.822,-0.038 1.238,-0.114 0.415,-0.077 0.79,-0.208 1.123,-0.394 0.332,-0.186 0.602,-0.438 0.806,-0.759 0.205,-0.319 0.308,-0.729 0.308,-1.229 0,-0.474 -0.125,-0.857 -0.374,-1.152 -0.25,-0.294 -0.583,-0.534 -0.999,-0.72 -0.416,-0.186 -0.886,-0.336 -1.411,-0.451 -0.524,-0.115 -1.059,-0.233 -1.603,-0.355 -0.544,-0.121 -1.078,-0.262 -1.604,-0.422 -0.524,-0.16 -0.995,-0.371 -1.411,-0.634 -0.416,-0.262 -0.748,-0.602 -0.998,-1.018 -0.249,-0.415 -0.374,-0.938 -0.374,-1.564 0,-0.691 0.141,-1.289 0.422,-1.795 0.281,-0.506 0.656,-0.922 1.123,-1.248 0.468,-0.326 0.999,-0.569 1.594,-0.729 0.596,-0.16 1.206,-0.24 1.834,-0.24 0.703,0 1.356,0.084 1.958,0.25 0.602,0.166 1.129,0.429 1.584,0.787 0.454,0.358 0.812,0.81 1.074,1.354 0.263,0.544 0.406,1.193 0.433,1.948 h -1.728 c -0.104,-0.984 -0.459,-1.698 -1.067,-2.14 z"
   id="path112" />
        </g><g
   id="g122"
   transform="translate(0.103,-10)">
            <g
   id="g120">
                <path
   fill="#ffffff"
   d="M 62.96,39.999 V 45.6 H 36.78 v 15.89 h 22.96 v 5.601 H 36.78 v 22.89 h -6.65 v -49.98 h 32.83 z"
   id="path116" />
                <path
   fill="#ffffff"
   d="m 82.42,53.789 v 5.25 H 75.21 V 81.51 c 0,0.7 0.058,1.26 0.175,1.68 0.116,0.42 0.338,0.747 0.665,0.98 0.326,0.233 0.781,0.385 1.365,0.454 0.583,0.07 1.341,0.105 2.274,0.105 h 2.73 v 5.25 h -4.55 c -1.54,0 -2.859,-0.105 -3.955,-0.315 -1.098,-0.21 -1.984,-0.595 -2.66,-1.154 -0.677,-0.561 -1.18,-1.354 -1.505,-2.38 -0.327,-1.026 -0.49,-2.381 -0.49,-4.061 V 59.039 H 63.1 v -5.25 h 6.16 v -10.85 h 5.95 v 10.85 z"
   id="path118" />
            </g>
        </g>
</svg>
