<?xml version="1.0" encoding="UTF-8" standalone="no"?>
<svg
   xmlns:dc="http://purl.org/dc/elements/1.1/"
   xmlns:cc="http://creativecommons.org/ns#"
   xmlns:rdf="http://www.w3.org/1999/02/22-rdf-syntax-ns#"
   xmlns:svg="http://www.w3.org/2000/svg"
   xmlns="http://www.w3.org/2000/svg"
   xmlns:sodipodi="http://sodipodi.sourceforge.net/DTD/sodipodi-0.dtd"
   xmlns:inkscape="http://www.inkscape.org/namespaces/inkscape"
   width="718.38678"
   height="705.17584"
   viewBox="-18.458 6.58 54.92814 53.91157"
   version="1.1"
   id="svg12"
   sodipodi:docname="mysql.svg"
   inkscape:version="0.92.4 5da689c313, 2019-01-14">
  <metadata
     id="metadata18">
    <rdf:RDF>
      <cc:Work
         rdf:about="">
        <dc:format>image/svg+xml</dc:format>
        <dc:type
           rdf:resource="http://purl.org/dc/dcmitype/StillImage" />
      </cc:Work>
    </rdf:RDF>
  </metadata>
  <defs
     id="defs16" />
  <sodipodi:namedview
     pagecolor="#ffffff"
     bordercolor="#666666"
     borderopacity="1"
     objecttolerance="10"
     gridtolerance="10"
     guidetolerance="10"
     inkscape:pageopacity="0"
     inkscape:pageshadow="2"
     inkscape:window-width="1380"
     inkscape:window-height="785"
     id="namedview14"
     showgrid="false"
     inkscape:zoom="0.1316"
     inkscape:cx="-896.71224"
     inkscape:cy="152.9748"
     inkscape:window-x="55"
     inkscape:window-y="30"
     inkscape:window-maximized="0"
     inkscape:current-layer="svg12" />
  <path
     d="m 32.133138,48.276573 c -2.99,-0.076 -5.305,0.225 -7.248,1.047 -0.561,0.224 -1.453,0.224 -1.531,0.933 0.303,0.3 0.338,0.784 0.601,1.198 0.448,0.747 1.229,1.752 1.942,2.276 0.783,0.6 1.569,1.194 2.393,1.717 1.453,0.899 3.1,1.422 4.516,2.318 0.825,0.521 1.645,1.195 2.471,1.756 0.406,0.299 0.666,0.784 1.193,0.971 v -0.114 c -0.264,-0.336 -0.339,-0.822 -0.598,-1.196 l -1.122,-1.082 c -1.084,-1.456 -2.431,-2.727 -3.884,-3.771 -1.196,-0.824 -3.812,-1.944 -4.297,-3.322 l -0.076,-0.076 c 0.822,-0.077 1.797,-0.375 2.578,-0.604 1.271,-0.335 2.43,-0.259 3.734,-0.594 0.6,-0.15 1.195,-0.338 1.797,-0.523 v -0.337 c -0.676,-0.673 -1.158,-1.567 -1.869,-2.203 -1.902,-1.643 -3.998,-3.25 -6.164,-4.595 -1.16,-0.749 -2.652,-1.231 -3.887,-1.868 -0.445,-0.225 -1.195,-0.336 -1.457,-0.71 -0.67,-0.822 -1.047,-1.904 -1.533,-2.877 -1.08,-2.053 -2.129,-4.331 -3.061,-6.502 -0.674,-1.456 -1.084,-2.91 -1.906,-4.257 -3.85,-6.35 -8.0309998,-10.196 -14.45699979,-13.971 -1.38100001,-0.786 -3.02400001,-1.121 -4.77900001,-1.533 l -2.803,-0.148 c -0.598,-0.2620003 -1.197,-0.9730003 -1.719,-1.3090003 -2.1320002,-1.344 -7.6210002,-4.257 -9.1890002,-0.411 -1.01,2.4310003 1.494,4.8210003 2.354,6.0540003 0.635,0.856 1.458,1.83 1.902,2.802 0.263,0.635 0.337,1.309 0.6,1.98 0.598,1.644 1.157,3.473 1.943,5.007 0.41,0.782 0.857,1.604 1.381,2.312 0.3000002,0.414 0.8220002,0.597 0.9360002,1.272 -0.521,0.744 -0.562,1.867 -0.861,2.801 -1.3440002,4.221 -0.8190002,9.45 1.086,12.552 0.596,0.934 2.018,2.99 3.92,2.202 1.684,-0.672 1.311,-2.801 1.795,-4.668 0.111,-0.451 0.038,-0.747 0.262,-1.043 v 0.073 c 0.521,1.045 1.047,2.052 1.53,3.1 1.15900001,1.829 3.177,3.735 4.858,5.002 0.895,0.676 1.604,1.832 2.725,2.245 v -0.112 h -0.074 c -0.227,-0.335 -0.559,-0.485 -0.857,-0.745 -0.674,-0.673 -1.42,-1.495 -1.943,-2.241 -1.566,-2.093 -2.95199999,-4.41 -4.18199999,-6.801 -0.60200001,-1.16 -1.12100001,-2.428 -1.60600001,-3.586 -0.226,-0.447 -0.226,-1.121 -0.601,-1.346 -0.562,0.821 -1.381,1.532 -1.791,2.538 -0.711,1.609 -0.785,3.588 -1.049,5.646 l -0.147,0.072 c -1.19,-0.299 -1.604,-1.53 -2.056,-2.575 -1.119,-2.654 -1.307,-6.914 -0.336,-9.976 0.26,-0.783 1.385,-3.249 0.936,-3.995 -0.225,-0.715 -0.973,-1.122 -1.383,-1.685 -0.482,-0.708 -1.01,-1.604 -1.3460002,-2.39 -0.896,-2.091 -1.347,-4.408 -2.312,-6.498 -0.451,-0.974 -1.234,-1.982 -1.868,-2.879 -0.712,-1.008 -1.495,-1.718 -2.058,-2.913 -0.186,-0.411 -0.447,-1.0830003 -0.148,-1.5300003 0.073,-0.3 0.225,-0.412 0.523,-0.487 0.484,-0.409 1.867,0.111 2.352,0.336 1.385,0.56 2.543,1.0830003 3.699,1.8670003 0.5230002,0.375 1.0840002,1.085 1.7550002,1.272 h 0.786 c 1.193,0.26 2.538,0.072 3.661,0.41 1.979,0.636 3.77200001,1.569 5.38,2.576 4.893,3.103 8.9279998,7.512 11.6519998,12.778 0.447,0.858 0.637,1.644 1.045,2.539 0.787,1.832 1.76,3.7 2.541,5.493 0.785,1.755 1.533,3.547 2.654,5.005 0.559,0.784 2.805,1.195 3.812,1.606 0.745,0.335 1.905,0.633 2.577,1.044 1.271,0.783 2.537,1.682 3.732,2.543 0.595,0.448 2.465,1.382 2.576,2.13 m -38.1059998,-32.464 a 5.82,5.82 0 0 0 -1.529,0.188 v 0.075 h 0.072 c 0.301,0.597 0.824,1.011 1.197,1.532 0.301,0.599 0.562,1.193 0.857,1.791 l 0.072,-0.074 c 0.527,-0.373 0.789,-0.971 0.789,-1.868 -0.227,-0.264 -0.262,-0.522 -0.451,-0.784 -0.22,-0.374 -0.705,-0.56 -1.007,-0.86"
     id="path8"
     inkscape:connector-curvature="0"
     style="fill:#5d87a1" />
</svg>
