<?xml version="1.0" encoding="UTF-8" standalone="no"?>
<!-- Generator: Adobe Illustrator 23.0.5, SVG Export Plug-In . SVG Version: 6.00 Build 0)  -->

<svg
   version="1.1"
   id="Layer_1"
   x="0px"
   y="0px"
   viewBox="0 0 300 76.567046"
   xml:space="preserve"
   sodipodi:docname="1920px-PHPUnit_Logo.svg"
   width="300"
   height="76.567047"
   inkscape:version="1.1.1 (3bf5ae0d25, 2021-09-20, custom)"
   xmlns:inkscape="http://www.inkscape.org/namespaces/inkscape"
   xmlns:sodipodi="http://sodipodi.sourceforge.net/DTD/sodipodi-0.dtd"
   xmlns="http://www.w3.org/2000/svg"
   xmlns:svg="http://www.w3.org/2000/svg"><defs
   id="defs157" /><sodipodi:namedview
   id="namedview155"
   pagecolor="#ffffff"
   bordercolor="#666666"
   borderopacity="1.0"
   inkscape:pageshadow="2"
   inkscape:pageopacity="0.0"
   inkscape:pagecheckerboard="0"
   showgrid="false"
   fit-margin-top="0"
   fit-margin-left="0"
   fit-margin-right="0"
   fit-margin-bottom="0"
   inkscape:zoom="25.793651"
   inkscape:cx="19.597846"
   inkscape:cy="50.826461"
   inkscape:window-width="3440"
   inkscape:window-height="1383"
   inkscape:window-x="0"
   inkscape:window-y="29"
   inkscape:window-maximized="1"
   inkscape:current-layer="Layer_1" />
<style
   type="text/css"
   id="style116">
	.st0{fill:#356388;}
	.st1{fill:#39B54A;}
	.st2{fill:#3C9CD7;}
</style>
<g
   id="g140"
   transform="matrix(7.9344089,0,0,7.9344089,-74.345411,-51.335624)">
	<rect
   x="32.09"
   y="6.4699998"
   class="st0"
   width="1.97"
   height="1.77"
   id="rect118" />
	<rect
   x="40.93"
   y="6.4699998"
   class="st1"
   width="1.9299999"
   height="1.88"
   id="rect120" />
	<rect
   x="35.049999"
   y="14.09"
   class="st1"
   width="1.9299999"
   height="1.88"
   id="rect122" />
	<rect
   x="32.09"
   y="8.8000002"
   class="st1"
   width="1.97"
   height="1.88"
   id="rect124" />
	<path
   class="st0"
   d="m 32.09,11.24 v 2.22 c 0,0.52 -0.28,0.84 -0.75,0.84 -0.44,0 -0.76,-0.28 -0.76,-0.85 V 6.47 H 30.3 c -1.18,0 -1.81,0.76 -1.81,2.24 v 4.8 c 0,1.8 1.03,2.61 2.73,2.61 1.6,0 2.85,-0.92 2.84,-2.65 v -2.22 h -1.97 z"
   id="path126" />
	<path
   class="st2"
   d="M 25.25,6.47 H 24 c -1.18,0 -1.81,0.76 -1.81,2.24 v 7.27 h 2.08 V 12.6 h 0.92 c 1.72,0 2.45,-1.2 2.45,-3.19 0,-1.94 -0.83,-2.94 -2.39,-2.94 z m -0.38,4.44 h -0.6 V 8.18 h 0.61 c 0.49,0 0.73,0.37 0.73,1.29 0,0.98 -0.26,1.44 -0.74,1.44 z"
   id="path128" />
	<path
   class="st2"
   d="M 12.43,6.47 H 11.18 C 10,6.47 9.37,7.23 9.37,8.71 v 7.27 h 2.08 V 12.6 h 0.92 c 1.72,0 2.45,-1.2 2.45,-3.19 0,-1.94 -0.83,-2.94 -2.39,-2.94 z m -0.39,4.44 h -0.6 V 8.18 h 0.61 c 0.49,0 0.73,0.37 0.73,1.29 0.01,0.98 -0.26,1.44 -0.74,1.44 z"
   id="path130" />
	<path
   class="st2"
   d="m 20.89,6.47 c -1.18,0 -1.81,0.76 -1.81,2.24 v 1.36 0.19 H 17.6 v -0.19 -3.6 h -0.27 c -1.18,0 -1.81,0.76 -1.81,2.24 v 7.27 h 2.08 v -3.65 -0.19 0 h 1.48 v 0 0.19 3.65 h 2.07 v -9.5 h -0.26 z"
   id="path132" />
	<path
   class="st0"
   d="M 47.18,10.36 V 8.87 H 46.21 V 7.26 H 45.6 c -0.85,0 -1.31,0.55 -1.31,1.61 h -0.63 v 1.49 h 0.63 v 4.2 c 0,1.05 0.75,1.52 1.69,1.52 0.37,0 0.84,-0.07 1.19,-0.19 v -1.53 c -0.15,0.03 -0.36,0.04 -0.56,0.04 -0.31,0 -0.4,-0.15 -0.4,-0.41 v -3.63 z"
   id="path134" />
	<path
   class="st0"
   d="m 38.46,8.64 c -0.63,0 -1.13,0.27 -1.48,0.77 V 8.8 h -0.63 c -0.85,0 -1.31,0.55 -1.31,1.61 v 3.12 h 1.93 V 11 c 0,-0.43 0.21,-0.75 0.53,-0.75 0.43,0 0.52,0.33 0.52,0.63 v 5.09 h 1.92 V 10.16 C 39.96,9.22 39.29,8.64 38.46,8.64 Z"
   id="path136" />
	<path
   class="st0"
   d="m 42.24,8.87 c -0.85,0 -1.31,0.55 -1.31,1.61 v 5.49 h 1.93 v -7.1 z"
   id="path138" />
</g>
<g
   id="g142"
   transform="translate(-9.3700004,-6.4699997)">
</g>
<g
   id="g144"
   transform="translate(-9.3700004,-6.4699997)">
</g>
<g
   id="g146"
   transform="translate(-9.3700004,-6.4699997)">
</g>
<g
   id="g148"
   transform="translate(-9.3700004,-6.4699997)">
</g>
<g
   id="g150"
   transform="translate(-9.3700004,-6.4699997)">
</g>
<g
   id="g152"
   transform="translate(-9.3700004,-6.4699997)">
</g>
</svg>
