<?xml version="1.0" encoding="UTF-8" standalone="no"?>
<svg
   xmlns:dc="http://purl.org/dc/elements/1.1/"
   xmlns:cc="http://creativecommons.org/ns#"
   xmlns:rdf="http://www.w3.org/1999/02/22-rdf-syntax-ns#"
   xmlns:svg="http://www.w3.org/2000/svg"
   xmlns="http://www.w3.org/2000/svg"
   xmlns:sodipodi="http://sodipodi.sourceforge.net/DTD/sodipodi-0.dtd"
   xmlns:inkscape="http://www.inkscape.org/namespaces/inkscape"
   width="225.9565"
   height="201.03711"
   viewBox="0 0 225.9565 201.03711"
   version="1.1"
   preserveAspectRatio="xMidYMid"
   id="svg10"
   sodipodi:docname="react.svg"
   inkscape:version="0.92.4 5da689c313, 2019-01-14">
  <metadata
     id="metadata16">
    <rdf:RDF>
      <cc:Work
         rdf:about="">
        <dc:format>image/svg+xml</dc:format>
        <dc:type
           rdf:resource="http://purl.org/dc/dcmitype/StillImage" />
      </cc:Work>
    </rdf:RDF>
  </metadata>
  <defs
     id="defs14" />
  <sodipodi:namedview
     pagecolor="#ffffff"
     bordercolor="#666666"
     borderopacity="1"
     objecttolerance="10"
     gridtolerance="10"
     guidetolerance="10"
     inkscape:pageopacity="0"
     inkscape:pageshadow="2"
     inkscape:window-width="1253"
     inkscape:window-height="1016"
     id="namedview12"
     showgrid="false"
     inkscape:zoom="1.026087"
     inkscape:cx="103.19297"
     inkscape:cy="86.564813"
     inkscape:window-x="1307"
     inkscape:window-y="30"
     inkscape:window-maximized="0"
     inkscape:current-layer="svg10" />
  <path
     style="fill:#53c1de"
     d="M 159.11328 0 C 147.80583 -0.080107238 133.31124 7.0850722 118.70898 19.792969 C 116.83674 21.42228 114.95869 23.147191 113.08203 24.955078 C 111.83159 23.758937 110.5831 22.60174 109.33789 21.496094 C 88.933105 3.3786137 68.480381 -4.2561659 56.199219 2.8535156 C 44.422816 9.6707976 40.936273 29.912465 45.892578 55.242188 C 46.371195 57.688767 46.92984 60.188224 47.5625 62.728516 C 44.66787 63.55021 41.874994 64.425526 39.201172 65.357422 C 15.278746 73.697834 0 86.769587 0 100.32812 C 0 114.33151 16.401293 128.37796 41.318359 136.89453 C 43.284712 137.56661 45.325035 138.20139 47.427734 138.80469 C 46.745202 141.55212 46.150669 144.24513 45.652344 146.87109 C 40.9265 171.76121 44.61825 191.52458 56.363281 198.29883 C 68.494826 205.29469 88.854072 198.10341 108.67969 180.77344 C 110.24666 179.40355 111.81911 177.95045 113.39453 176.42773 C 115.4365 178.39408 117.47602 180.25446 119.50391 182 C 138.70733 198.52517 157.67403 205.1994 169.4082 198.40625 C 181.52768 191.39028 185.46513 170.15899 180.35156 144.32812 C 179.96102 142.35533 179.50648 140.34028 178.99609 138.28906 C 180.42591 137.86635 181.83053 137.43024 183.19922 136.97656 C 209.10288 128.39403 225.95703 114.51853 225.95703 100.32812 C 225.95703 86.720517 210.18551 73.5613 185.78125 65.160156 C 183.43723 64.353344 181.00869 63.589136 178.50781 62.867188 C 178.91886 61.189613 179.29542 59.533952 179.63086 57.90625 C 185.13697 31.178885 181.53737 9.6477627 169.24414 2.5585938 C 166.29723 0.85919988 162.88243 0.026702413 159.11328 0 z M 158.61914 9.6328125 C 160.90792 9.5992285 162.86795 10.023834 164.42188 10.919922 C 171.98845 15.283385 174.93173 32.882786 170.17773 55.958984 C 169.87447 57.431436 169.53293 58.931259 169.16211 60.451172 C 159.78764 58.288142 149.60906 56.677602 138.95117 55.677734 C 132.74242 46.836182 126.30772 38.7987 119.84961 31.839844 C 121.5859 30.169509 123.32022 28.577238 125.04688 27.074219 C 138.07939 15.732505 150.44491 9.7527555 158.61914 9.6328125 z M 67.224609 9.8476562 C 75.951419 10.011863 89.165664 16.49332 102.92969 28.714844 C 104.05584 29.714712 105.18651 30.761029 106.32031 31.84375 C 99.755206 38.893101 93.267002 46.918636 87.070312 55.664062 C 76.443392 56.649049 66.270717 58.230822 56.917969 60.349609 C 56.329953 57.984273 55.809664 55.660698 55.365234 53.388672 C 51.118811 31.68679 53.940298 15.31705 61.037109 11.208984 C 62.690715 10.251662 64.781103 9.8016784 67.224609 9.8476562 z M 113.08594 38.742188 C 117.53829 43.565767 121.99722 48.951767 126.38281 54.794922 C 121.96344 54.58618 117.48959 54.476562 112.97852 54.476562 C 108.51008 54.476562 104.0678 54.58394 99.675781 54.789062 C 104.06579 49.000205 108.56401 43.621271 113.08594 38.742188 z M 112.97852 64.130859 C 119.97398 64.130859 126.87386 64.397753 133.5918 64.910156 C 137.32823 70.425518 140.97536 76.241072 144.47852 82.292969 C 148.02149 88.412833 151.27545 94.475357 154.21875 100.42188 C 151.2843 106.47056 148.03706 112.59583 144.50977 118.71289 C 140.97765 124.83718 137.35125 130.68259 133.66992 136.20117 C 126.96485 136.68059 120.03873 136.92773 112.97852 136.92773 C 105.94687 136.92773 99.105951 136.71074 92.519531 136.2832 C 88.689791 130.69222 84.986161 124.82798 81.476562 118.76562 C 77.976219 112.71976 74.755102 106.62331 71.835938 100.56055 C 74.754059 94.484215 77.96736 88.380231 81.447266 82.345703 L 81.447266 82.34375 C 84.936493 76.293181 88.608299 70.457881 92.402344 64.902344 C 99.122294 64.394367 106.01443 64.130859 112.97852 64.130859 z M 80.011719 66.138672 C 77.638742 69.840114 75.323431 73.638247 73.083984 77.521484 L 73.083984 77.523438 C 70.85057 81.396216 68.722511 85.297645 66.705078 89.207031 C 63.894106 82.540568 61.489734 75.986066 59.525391 69.65625 C 65.972248 68.21356 72.848143 67.032761 80.011719 66.138672 z M 145.96094 66.15625 C 153.17037 67.067634 160.07778 68.277316 166.56445 69.757812 C 164.617 75.999144 162.19121 82.525053 159.33398 89.214844 C 157.28438 85.323557 155.11492 81.400597 152.83203 77.457031 C 150.59621 73.595111 148.30093 69.823908 145.96094 66.15625 z M 50.15625 72.025391 C 52.983712 81.22289 56.691891 90.838522 61.167969 100.5625 C 56.633974 110.43087 52.872793 120.20057 50.017578 129.50586 C 48.095064 128.95324 46.231654 128.37192 44.439453 127.75977 C 33.421599 123.99398 24.322846 119.10058 18.085938 113.75977 C 12.481689 108.96033 9.6523438 104.19448 9.6523438 100.32812 C 9.6523438 92.100337 21.91827 81.605665 42.376953 74.472656 C 44.859329 73.607123 47.459502 72.791581 50.15625 72.025391 z M 175.92383 72.167969 C 178.23527 72.836826 180.47685 73.542637 182.63867 74.287109 C 203.54822 81.485274 216.30273 92.127687 216.30273 100.32812 C 216.30273 109.0631 202.52997 120.40157 180.16406 127.8125 C 178.9285 128.22154 177.65906 128.61865 176.36719 129.00195 C 173.50755 119.94884 169.64881 110.32099 164.92578 100.375 C 169.43283 90.665902 173.14423 81.162357 175.92383 72.167969 z M 112.97852 80.150391 C 101.83518 80.150391 92.800781 89.184387 92.800781 100.32812 C 92.800781 111.47146 101.83518 120.50586 112.97852 120.50586 C 124.12186 120.50586 133.15625 111.47146 133.15625 100.32812 C 133.15625 89.184387 124.12186 80.150391 112.97852 80.150391 z M 159.42578 111.5625 C 162.44589 118.44615 164.99222 125.10641 167.01367 131.43945 C 160.46224 132.93402 153.38831 134.1387 145.93555 135.0332 C 148.28118 131.31607 150.59584 127.48033 152.87109 123.53516 C 155.17288 119.54373 157.35928 115.54589 159.42578 111.5625 z M 66.716797 111.91016 C 68.739458 115.81673 70.875958 119.72033 73.123047 123.60156 C 75.411964 127.55558 77.782686 131.42802 80.216797 135.20508 C 72.815522 134.37936 65.837826 133.2603 59.392578 131.85742 C 61.388292 125.41459 63.846299 118.7202 66.716797 111.91016 z M 169.66016 140.73633 C 170.12108 142.5957 170.53008 144.42018 170.88281 146.20312 C 173.14397 157.62518 173.46654 167.95244 171.96875 176.02539 C 170.62299 183.27946 167.91661 188.11574 164.57031 190.05273 C 157.44936 194.17447 142.22185 188.81607 125.79883 174.68359 C 123.91614 173.06353 122.01959 171.33277 120.11719 169.50195 C 126.48401 162.53867 132.84823 154.44544 139.05859 145.45508 C 149.98193 144.48578 160.30138 142.89976 169.66016 140.73633 z M 56.787109 141.16992 C 66.043329 143.21672 76.286847 144.68851 87.236328 145.57617 C 93.488528 154.37348 100.03513 162.4607 106.63281 169.54102 C 105.19133 170.93263 103.75593 172.25743 102.32812 173.50586 C 93.561379 181.16897 84.775545 186.60528 77.033203 189.33984 C 70.075955 191.79687 64.535065 191.86691 61.185547 189.93555 C 54.058169 185.82466 51.095016 169.95592 55.136719 148.66992 C 55.599651 146.23218 56.152036 143.72952 56.787109 141.16992 z M 126.61719 146.27734 C 122.21713 152.25644 117.7757 157.72513 113.35352 162.59375 C 108.7785 157.65756 104.21458 152.19754 99.757812 146.32422 C 104.08427 146.49394 108.4956 146.58203 112.97852 146.58203 C 117.58411 146.58203 122.13588 146.47683 126.61719 146.27734 z "
     id="path4" />
</svg>
