<?xml version="1.0" encoding="UTF-8" standalone="no"?>
<svg
   xmlns:dc="http://purl.org/dc/elements/1.1/"
   xmlns:cc="http://creativecommons.org/ns#"
   xmlns:rdf="http://www.w3.org/1999/02/22-rdf-syntax-ns#"
   xmlns:svg="http://www.w3.org/2000/svg"
   xmlns="http://www.w3.org/2000/svg"
   xmlns:sodipodi="http://sodipodi.sourceforge.net/DTD/sodipodi-0.dtd"
   xmlns:inkscape="http://www.inkscape.org/namespaces/inkscape"
   id="svg"
   version="1.1"
   width="127.2"
   height="126.80047"
   viewBox="0 0 127.2 126.80047"
   sodipodi:docname="image2vector.svg"
   inkscape:version="0.92.4 5da689c313, 2019-01-14">
  <metadata
     id="metadata17">
    <rdf:RDF>
      <cc:Work
         rdf:about="">
        <dc:format>image/svg+xml</dc:format>
        <dc:type
           rdf:resource="http://purl.org/dc/dcmitype/StillImage" />
      </cc:Work>
    </rdf:RDF>
  </metadata>
  <defs
     id="defs15" />
  <sodipodi:namedview
     pagecolor="#ffffff"
     bordercolor="#666666"
     borderopacity="1"
     objecttolerance="10"
     gridtolerance="10"
     guidetolerance="10"
     inkscape:pageopacity="0"
     inkscape:pageshadow="2"
     inkscape:window-width="1459"
     inkscape:window-height="718"
     id="namedview13"
     showgrid="false"
     inkscape:zoom="0.59"
     inkscape:cx="-128.42034"
     inkscape:cy="58.19661"
     inkscape:window-x="55"
     inkscape:window-y="30"
     inkscape:window-maximized="0"
     inkscape:current-layer="svg" />
  <path
     style="fill:#f3be3b;fill-rule:evenodd;stroke:none"
     inkscape:connector-curvature="0"
     d="m 38.12,54.530467 c -0.331,0.549 -1.694,1.245 -2.22,1.134 -0.165,-0.035 -0.3,0.206 -0.3,0.536 0,0.33 -0.186,0.6 -0.413,0.6 -0.228,0 -0.942,0.54 -1.587,1.2 -0.645,0.66 -1.359,1.2 -1.587,1.2 -0.227,0 -0.413,0.27 -0.413,0.6 0,0.33 -0.27,0.6 -0.6,0.6 -0.33,0 -0.6,0.249 -0.6,0.553 0,0.305 -0.378,0.653 -0.84,0.773 -0.463,0.121 -0.722,0.412 -0.577,0.647 0.241,0.39 -0.368,0.583 -1.683,0.534 -0.275,-0.01 -0.5,0.166 -0.5,0.392 0,0.5 -1.894,2.301 -2.421,2.301 -0.208,0 -0.379,0.27 -0.379,0.6 0,0.33 -0.27,0.6 -0.6,0.6 -0.33,0 -0.6,0.27 -0.6,0.6 0,0.33 -0.27,0.6 -0.6,0.6 -0.33,0 -0.6,0.27 -0.6,0.6 0,0.33 -0.242,0.6 -0.539,0.6 -0.296,0 -0.954,0.36 -1.461,0.8 -0.507,0.44 -1.057,0.8 -1.221,0.8 -0.425,0 -3.179,2.807 -3.179,3.24 0,0.198 -0.27,0.36 -0.6,0.36 -0.33,0 -0.6,0.27 -0.6,0.6 0,0.33 -0.27,0.6 -0.6,0.6 -0.33,0 -0.6,0.27 -0.6,0.6 0,0.547 -0.56,0.756 -1.896,0.708 -0.272,-0.01 -0.405,0.128 -0.295,0.307 0.11,0.178 -0.387,0.733 -1.104,1.233 -1.793,1.25 -4.305,3.762 -4.305,4.305 0,0.401 -0.846,0.638 -1.73,0.484 -0.181,-0.031 -0.215,0.129 -0.074,0.356 0.14,0.227 -0.072,0.53 -0.471,0.674 -0.829,0.299 -1.698,1.177 -2.433,2.461 -0.388,0.677 -0.502,4.403 -0.482,15.653003 0.027,15.092 0.116,15.95 1.515,14.551 0.629,-0.629 1.275,-0.696 1.275,-0.132 0,0.22 -0.27,0.4 -0.6,0.4 -0.33,0 -0.6,0.27 -0.6,0.6 0,0.333 -0.356,0.6 -0.8,0.6 -0.749,0 -0.8,0.267 -0.8,4.2 v 4.2 h 15.8 c 13.653,0 15.8,-0.08 15.8,-0.589 0,-0.491 5.508,-5.368 10.629,-9.411 3.379,-2.668 6.956,-5.697 8.691,-7.36 1.056,-1.012 1.978,-1.84 2.048,-1.84 0.148,0 5.46,-4.951 8.178,-7.622003 2.307,-2.268 3.976,-4.143 7.099,-7.978 2.963,-3.638 9.087,-9.549 12.433,-12.002 3.405,-2.495 6.147,-6.502 6.242,-9.122 0.029,-0.812 0.222,-1.594 0.428,-1.738 0.47,-0.327 0.724,-2.43 0.26,-2.143 -0.187,0.116 -0.431,-0.016 -0.542,-0.293 -0.122,-0.303 -0.215,-0.224 -0.234,0.198 -0.018,0.385 -0.245,0.7 -0.505,0.7 -0.26,0 -1.926,1.395 -3.702,3.1 -4.849,4.653 -7.287,6.573 -11.033,8.685 -6.429,3.626 -16.054,-4.496 -12.214,-10.306 0.731,-1.106 0.729,-1.128 -0.144,-1.74 -0.816,-0.572 -0.835,-0.675 -0.247,-1.325 0.665,-0.734 1.355,-4.814 0.815,-4.814 -0.17,0 -1.596,1.215 -3.169,2.7 -7.848,7.409 -13.453,9.691 -18.597,7.571 -5.798,-2.388 -6.326,-7.98 -1.274,-13.491 1.673,-1.825 2.438,-2.896 2.438,-3.414 0,-0.714 -0.658,-0.736 -1.08,-0.036 m 23.48,5.47 c 0,0.44 0.084,0.8 0.186,0.8 0.102,0 0.379,-0.36 0.614,-0.8 0.342,-0.639 0.304,-0.8 -0.186,-0.8 -0.347,0 -0.614,0.347 -0.614,0.8 m 32.084,34.333 c -5.244,5.418 -11.676,9.216003 -15.671,9.254003 -4.416,0.042 -8.813,-3.906003 -8.813,-7.913003 0,-1.931 -0.994,-1.459 -4.676,2.223 -0.937,0.937 -1.888,1.703 -2.113,1.703 -0.226,0 -0.411,0.27 -0.411,0.600003 0,0.33 -0.27,0.6 -0.6,0.6 -0.33,0 -0.608,0.225 -0.618,0.5 -0.011,0.275 -0.47,0.86 -1.022,1.3 -0.551,0.44 -1.873,1.61 -2.938,2.6 -1.065,0.99 -3.225,2.97 -4.8,4.4 -1.575,1.43 -3.766,3.455 -4.87,4.5 -1.103,1.045 -2.089,1.9 -2.192,1.9 -0.103,0 -0.684,0.495 -1.292,1.1 -0.608,0.605 -2.267,2.085 -3.687,3.288 -4.094,3.47 -5.981,5.33 -5.981,5.895 0,0.427 4.203,0.504 22.7,0.42 17.903,-0.081 22.679,-0.209 22.6,-0.603 -0.059,-0.294 0.315,-0.5 0.91,-0.5 0.802,0 1.059,-0.247 1.25,-1.2 0.132,-0.66 0.488,-1.2 0.79,-1.2 0.303,0 0.55,-0.279 0.55,-0.621 0,-0.341 0.541,-0.809 1.202,-1.04 0.743,-0.259 1.295,-0.785 1.443,-1.376 0.132,-0.527 0.413,-0.851 0.625,-0.72 0.211,0.131 0.483,-0.141 0.604,-0.603 0.12,-0.462 0.468,-0.84 0.773,-0.84 0.304,0 0.553,-0.179 0.553,-0.397 0,-0.689 1.702,-2.387 2.128,-2.124 0.247,0.153 0.307,-0.011 0.153,-0.413 -0.141,-0.366 -0.086,-0.666 0.121,-0.666 0.384,0 1.646,-2.15 1.576,-2.686 -0.021,-0.162 0.181,-0.367 0.448,-0.456 0.314,-0.105 0.373,0.033 0.166,0.39 -0.189,0.326 -0.171,0.415 0.044,0.219 0.2,-0.184 0.386,-0.499 0.414,-0.7 0.028,-0.202 0.072,-0.558 0.1,-0.791 0.028,-0.233 0.275,-0.296 0.55,-0.141 0.381,0.215 0.39,0.164 0.039,-0.218 -0.354,-0.382 -0.26,-0.732 0.4,-1.49 0.473,-0.545 0.879,-1.112 0.902,-1.259 0.151,-1.001 1.097,-2.83 1.375,-2.658 0.185,0.114 0.393,-0.561 0.461,-1.501 0.071,-0.994 0.311,-1.674 0.574,-1.625 0.303,0.056 0.472,-1.104 0.517,-3.550003 0.057,-3.125 -0.02,-3.6 -0.551,-3.396 -0.453,0.174 -0.617,-0.025 -0.617,-0.751 0,-1.497 -1.371,-1.257 -3.116,0.546"
     id="path0" />
  <path
     style="fill:#ba61a4;fill-rule:evenodd;stroke:none"
     inkscape:connector-curvature="0"
     d="m 104.4,0.28646685 c -1.195,0.445 -1.977,1.57400005 -1.469,2.12300005 0.369,0.4 0.32,0.456 -0.231,0.262 -0.629,-0.221 -0.7,0.079 -0.7,2.942 0,2.608 -0.112,3.187 -0.618,3.187 -0.527,0 -0.609,0.71 -0.556,4.8000001 0.049,3.802 0.177,4.8 0.618,4.8 0.306,0 0.578,0.36 0.606,0.8 0.102,1.634 0.161,1.801 0.65,1.85 0.275,0.028 0.781,0.073 1.124,0.1 0.343,0.028 0.512,0.23 0.376,0.451 -0.137,0.22 0.175,0.561 0.692,0.758 0.518,0.197 1.181,0.646 1.473,0.999 0.293,0.353 0.736,0.636 0.984,0.629 0.248,-0.008 0.028,-0.366 -0.489,-0.797 -0.994,-0.828 -1.187,-2.231 -0.744,-5.39 1.734,-12.3650001 2.349,-15.6780001 3.1,-16.7000001 L 110.024,4.6685036e-4 107.512,0.03246685 c -1.382,0.017 -2.782,0.132 -3.112,0.254 m 13.883,0.242 c 0.162,0.26 0.339,0.74200005 0.394,1.07200005 0.151,0.907 -3.427,17.6080001 -4.094,19.1140001 -0.321,0.722 -0.583,1.746 -0.583,2.276 0,0.53 -0.153,1.058 -0.341,1.173 -0.187,0.116 -0.445,1.432 -0.572,2.924 -0.199,2.328 -3.826,17.382 -6.87,28.513 -0.511,1.87 -0.937,3.985 -0.947,4.701 -0.009,0.715 -0.358,1.795 -0.776,2.4 -0.418,0.604 -1.347,2.576 -2.065,4.381 -0.717,1.806 -1.538,3.477 -1.823,3.713 -0.286,0.237 -1.274,2 -2.197,3.918 -1.611,3.347 -2.823,4.835 -5.529,6.787 -1.451,1.047 -2.301,1.144 -2.625,0.3 -0.333,-0.868 -1.754,-0.737 -2.259,0.208 -0.591,1.104 -0.187,1.591 1.328,1.598 3.132,0.015 2.481,1.902 -2.042,5.913 -4.019,3.564 -12.082,11.607003 -12.082,12.051003 0,0.237 -0.27,0.43 -0.6,0.43 -1.058,0 -0.642,0.624 0.752,1.128 2.732,0.988 12.002,-7.089003 20.948,-18.251003 2.346,-2.926 2.57,-3.677 1.1,-3.677 -1.316,0 -1.263,-0.285 0.33,-1.765 4.423,-4.11 9.508,-14.481 9.398,-19.168 -0.042,-1.765 0.358,-3.947 1.406,-7.667 2.67,-9.48 6.666,-25.446 6.666,-26.632 0,-1.356 2.33,-1.71 3.824,-0.581 1.002,0.758 1.376,0.759 1.376,0.004 0,-0.334 0.461,-0.818 1.025,-1.075 l 1.025,-0.467 -1.09,-0.571 -1.089,-0.571 1.029,-0.625 c 0.567,-0.344 1.118,-1.088 1.225,-1.653 0.108,-0.566 0.765,-3.099 1.462,-5.629 0.696,-2.53 1.506,-5.5900001 1.799,-6.8000001 0.292,-1.21 0.55,-1.896 0.573,-1.524 0.124,2.039 0.841,0.865 0.841,-1.376 0,-2.716 -0.562,-3.971 -1.84,-4.10500005 -0.418,-0.043 -1.21,-0.184 -1.76,-0.312 -2.305,-0.537 -5.616,-0.633 -5.317,-0.155 M 108.4,25.751467 c 0,1.424 -0.203,2.319 -0.6,2.649 -0.419,0.347 -0.6,1.269 -0.6,3.049 0,1.986 -0.131,2.551 -0.592,2.551 -0.581,0 -1.309,1.833 -0.893,2.249 0.116,0.116 -0.132,1.412 -0.552,2.88 -0.42,1.467 -0.763,3.357 -0.763,4.198 0,0.842 -0.27,1.8 -0.6,2.13 -0.4,0.4 -0.6,1.4 -0.6,2.995 0,1.317 -0.16,2.297 -0.355,2.176 -0.504,-0.312 -0.833,1.203 -0.84,3.872 -0.004,1.775 -0.142,2.3 -0.605,2.3 -0.395,0 -0.6,0.395 -0.6,1.157 0,0.66 -0.258,1.256 -0.6,1.388 -0.33,0.126 -0.6,0.666 -0.6,1.2 0,0.533 -0.27,1.073 -0.6,1.2 -0.33,0.126 -0.6,0.666 -0.6,1.2 0,0.533 -0.27,1.073 -0.6,1.2 -0.33,0.126 -0.6,0.574 -0.6,0.993 0,0.42 -0.27,0.988 -0.6,1.262 -0.33,0.274 -0.6,0.722 -0.6,0.995 0,0.273 -0.36,0.955 -0.8,1.514 -0.44,0.56 -0.8,1.41 -0.8,1.89 0,0.904 -1.414,2.364 -2.313,2.388 -0.281,0.007 -0.616,0.283 -0.742,0.613 -0.127,0.33 -0.481,0.6 -0.788,0.6 -0.306,0 -0.557,0.27 -0.557,0.6 0,0.33 -0.192,0.6 -0.427,0.6 -0.235,0 -1,0.591 -1.7,1.313 -0.7,0.723 -3.518,3.288 -6.262,5.7 -7.514,6.608 -12.411,11.488 -12.411,12.368 0,0.682 0.158,0.63 1.3,-0.421 7.761,-7.144 11.681,-10.692 13.658,-12.365 6.043,-5.113 8.138,-6.739 9.342,-7.252 1.037,-0.442 1.3,-0.786 1.3,-1.706 0,-0.654 0.259,-1.251 0.6,-1.382 0.33,-0.126 0.6,-0.551 0.601,-0.942 0,-0.392 0.81,-2.243 1.801,-4.113 1.905,-3.597 4.059,-7.999 5.144,-10.514 0.36,-0.832 0.66,-2.182 0.668,-3 0.008,-0.817 0.272,-1.936 0.586,-2.486 0.314,-0.55 0.579,-1.63 0.588,-2.4 0.009,-0.77 0.286,-1.916 0.614,-2.546 0.329,-0.63 0.598,-1.895 0.598,-2.811 0,-0.916 0.245,-2.02 0.543,-2.454 0.299,-0.434 0.67,-1.934 0.825,-3.334 0.155,-1.4 0.432,-2.84 0.615,-3.2 0.183,-0.36 0.513,-1.555 0.735,-2.655 0.222,-1.1 0.702,-3.056 1.067,-4.347 0.747,-2.639 0.612,-3.453 -0.572,-3.453 -0.716,0 -0.813,0.256 -0.813,2.151 m -48.682,14.051 c -0.472,0.331 -1.322,0.64 -1.889,0.687 -0.566,0.047 -1.029,0.316 -1.029,0.598 0,0.282 -0.379,0.513 -0.843,0.513 -0.582,0 -0.772,0.184 -0.614,0.595 0.125,0.328 0.1,0.562 -0.057,0.521 -0.565,-0.147 -2.093,0.549 -1.898,0.864 0.109,0.177 -0.293,0.429 -0.894,0.559 -0.602,0.13 -1.959,1.056 -3.016,2.059 -1.058,1.002 -2.072,1.729 -2.255,1.616 -0.183,-0.113 -0.426,0.153 -0.54,0.59 -0.137,0.524 -0.546,0.796 -1.199,0.796 -0.674,0 -1.062,0.272 -1.213,0.852 -0.148,0.566 -0.431,0.772 -0.842,0.614 -0.341,-0.13 -0.577,-0.083 -0.524,0.105 0.052,0.188 -0.331,0.716 -0.852,1.173 -0.556,0.488 -0.851,1.083 -0.715,1.439 0.128,0.334 0.105,0.59 -0.052,0.569 -0.599,-0.081 -2.086,0.557 -2.086,0.895 0,0.194 -0.315,0.694 -0.7,1.111 -2.6,2.815 -5.081,6.402 -4.684,6.77 0.162,0.15 0.374,0.047 0.472,-0.228 0.098,-0.275 0.363,-0.5 0.588,-0.5 0.225,0 2.235,-1.737 4.467,-3.859 2.231,-2.123 6.127,-5.584 8.657,-7.691 2.53,-2.108 4.69,-3.938 4.8,-4.068 0.11,-0.13 1.161,-0.989 2.336,-1.91 1.176,-0.92 2.611,-2.213 3.19,-2.872 0.578,-0.66 1.383,-1.2 1.787,-1.2 0.404,0 0.632,-0.165 0.508,-0.366 -0.124,-0.201 0,-0.457 0.277,-0.568 0.276,-0.112 0.317,-0.217 0.091,-0.234 -0.226,-0.018 -0.798,0.239 -1.271,0.57 m 4.525,-0.035 c 0.133,0.348 0.418,0.633 0.633,0.633 0.526,0 0.197,-0.909 -0.401,-1.108 -0.293,-0.098 -0.382,0.085 -0.232,0.475 m 2.157,2.751 c 0,1.953 -28.155,27.451 -30.36,27.495 -0.527,0.01 -0.503,0.116 0.136,0.6 1.756,1.327 4.784,0.281 8.941,-3.089 4.987,-4.043 8.612,-7.136 9.69,-8.267 4.427,-4.644 11.593,-13.321 11.593,-14.038 0,-0.199 0.282,-0.644 0.627,-0.989 0.382,-0.382 0.528,-0.942 0.373,-1.429 -0.282,-0.89 -1,-1.093 -1,-0.283 m 19.453,4.488 c -0.127,0.331 -0.371,0.564 -0.542,0.518 -0.683,-0.182 -2.111,0.564 -2.111,1.103 0,0.487 -1.026,0.79 -2.1,0.62 -0.165,-0.026 -0.3,0.223 -0.3,0.553 0,0.333 -0.356,0.6 -0.8,0.6 -0.444,0 -0.8,0.267 -0.8,0.6 0,0.33 -0.27,0.6 -0.6,0.6 -0.33,0 -0.6,0.256 -0.6,0.568 0,0.313 -0.542,0.687 -1.203,0.833 -0.662,0.145 -1.102,0.429 -0.977,0.632 0.125,0.202 -0.059,0.367 -0.409,0.367 -0.35,0 -0.74,0.27 -0.866,0.6 -0.127,0.33 -0.592,0.6 -1.034,0.6 -0.575,0 -0.751,0.204 -0.618,0.714 0.127,0.484 -0.037,0.715 -0.507,0.715 -0.454,0 -0.615,-0.209 -0.464,-0.602 0.203,-0.529 0.154,-0.531 -0.408,-0.014 -0.35,0.323 -0.61,0.7 -0.576,0.839 0.105,0.425 -2.144,2.348 -2.746,2.348 -0.315,0 -0.474,0.243 -0.357,0.547 0.256,0.667 -1.313,1.172 -1.584,0.511 -0.103,-0.252 -0.202,-0.158 -0.219,0.209 -0.018,0.366 0.193,0.757 0.468,0.868 0.299,0.121 0.218,0.215 -0.2,0.233 -0.385,0.018 -0.7,0.305 -0.7,0.64 0,0.448 -0.262,0.541 -1,0.356 -0.831,-0.208 -1,-0.107 -1,0.596 0,0.748 -0.807,1.906 -2.8,4.018 -4.595,4.868 -1.844,4.037 3.612,-1.092 3.801,-3.572 4.687,-4.323 13.055,-11.066 3.263,-2.63 6.171,-5.015 6.462,-5.3 0.29,-0.286 0.695,-0.52 0.9,-0.52 0.204,0 0.371,-0.258 0.371,-0.573 0,-0.315 0.36,-0.687 0.8,-0.827 0.843,-0.267 1.044,-0.802 0.442,-1.174 -0.197,-0.122 -0.462,0.049 -0.589,0.38 m 6.447,1.424 c 0.581,0.616 0.674,1.325 0.129,0.988 -0.204,-0.126 -0.477,0.102 -0.605,0.508 -0.387,1.217 -15.262,15.642 -23.424,22.714 -0.99,0.858 -1.98,1.754 -2.2,1.991 -0.924,0.995 -3.659,2.887 -4.4,3.043 -0.897,0.189 1.988,1.926 3.2,1.926 1.8,0 6.627,-3.757 14.124,-10.992 4.672,-4.51 11.644,-12.997 12.246,-14.908 0.156,-0.495 0.538,-0.9 0.849,-0.9 1.157,0 1.325,-4.375 0.181,-4.719 -0.484,-0.146 -0.504,-0.079 -0.1,0.349"
     id="path1" />
  <path
     style="fill:#814451;fill-rule:evenodd;stroke:none"
     inkscape:connector-curvature="0"
     d="m 121.4,0.41146685 c 4.195,0.533 4.73,0.67800005 5.3,1.44200005 0.514,0.69 0.547,0.655 0.429,-0.453 L 127,0.20046685 l -4,-0.047 c -3.543,-0.041 -3.726,-0.012 -1.6,0.258 m 4.297,7.70200005 c -0.238,1.148 -1.005,4.1570001 -1.705,6.6870001 -0.699,2.53 -1.359,5.063 -1.467,5.629 -0.107,0.565 -0.669,1.316 -1.249,1.668 l -1.054,0.639 1.114,0.508 1.114,0.507 -1.025,0.537 c -0.564,0.296 -1.025,0.802 -1.025,1.125 0,0.734 -0.382,0.727 -1.376,-0.026 -1.494,-1.129 -3.824,-0.775 -3.824,0.581 0,1.186 -3.996,17.152 -6.666,26.632 -1.048,3.72 -1.448,5.902 -1.406,7.667 0.11,4.687 -4.975,15.058 -9.398,19.168 -1.593,1.48 -1.646,1.765 -0.33,1.765 1.47,0 1.246,0.751 -1.1,3.677 -5.625,7.019 -13.41,14.752 -17.423,17.308003 -1.728,1.1 -1.799,1.207 -0.898,1.343 3.176,0.481 10.479,-3.796003 15.705,-9.195003 1.745,-1.803 3.116,-2.043 3.116,-0.546 0,0.714 0.167,0.924 0.6,0.758 0.349,-0.134 0.6,-0.733 0.6,-1.431 0,-0.902 -0.149,-1.142 -0.6,-0.969 -0.33,0.126 -0.6,0.056 -0.6,-0.158 0,-0.213 0.27,-0.387 0.6,-0.387 0.33,0 0.6,-0.27 0.6,-0.6 0,-0.33 0.27,-0.6 0.6,-0.6 0.4,0 0.6,-0.4 0.6,-1.2 0,-0.809 0.199,-1.2 0.61,-1.2 0.335,0 0.785,-0.405 0.999,-0.9 0.214,-0.495 0.544,-1.17 0.733,-1.5 1.252,-2.183 1.658,-3.294 1.658,-4.538 0,-0.778 0.185,-1.529 0.411,-1.669 0.225,-0.139 0.377,-0.465 0.337,-0.723 -0.109,-0.695 0.515,-2.024 1.122,-2.39 0.291,-0.176 0.53,-0.562 0.53,-0.857 0,-0.296 0.27,-0.641 0.6,-0.768 0.33,-0.126 0.6,-0.596 0.6,-1.042 0,-0.456 0.264,-0.813 0.6,-0.813 0.33,0 0.6,-0.332 0.6,-0.738 0,-0.406 0.36,-1.064 0.8,-1.462 0.451,-0.408 0.8,-1.232 0.8,-1.888 0,-0.641 0.202,-1.542 0.449,-2.004 0.61,-1.139 0.492,-5.1 -0.171,-5.763 -0.497,-0.498 -0.293,-1.764 0.322,-2 0.33,-0.127 0.606,-0.706 0.613,-1.288 0.007,-0.581 0.277,-1.406 0.6,-1.833 0.323,-0.428 0.587,-1.533 0.587,-2.458 0,-1.125 0.198,-1.757 0.6,-1.911 0.412,-0.158 0.6,-0.802 0.6,-2.055 0,-1.253 0.188,-1.897 0.6,-2.055 0.429,-0.165 0.6,-0.835 0.6,-2.345 0,-1.51 0.171,-2.18 0.6,-2.345 0.412,-0.158 0.6,-0.802 0.6,-2.055 0,-1.152 0.197,-1.901 0.533,-2.03 0.294,-0.112 0.554,-0.422 0.579,-0.687 0.19,-2.033 0.674,-4.126 1.003,-4.34 0.217,-0.142 0.484,-1.222 0.595,-2.4 0.196,-2.094 0.912,-3.693 1.698,-3.793 0.215,-0.027 0.662,-0.073 0.992,-0.1 0.33,-0.027 0.6,-0.275 0.599,-0.55 0,-0.361 0.683,-0.462 2.453,-0.362 3.243,0.183 3.135,0.514 3.142,-9.592 0.007,-9.6030001 -0.587,-13.0270001 -1.497,-8.6330001 M 103.425,21.628467 c 0.836,0.923 0.842,0.925 0.842,0.201 0,-0.314 -0.347,-0.661 -0.77,-0.772 -0.737,-0.193 -0.74,-0.167 -0.072,0.571 m 4.275,5.067 c -0.275,0.094 -0.5,0.645 -0.5,1.224 0,0.964 0.054,0.999 0.638,0.414 0.723,-0.723 0.623,-1.9 -0.138,-1.638 m -1.705,5.672 c -0.003,0.348 -0.095,1.083 -0.205,1.633 -0.109,0.55 -0.092,0.775 0.039,0.5 0.131,-0.275 0.493,-0.5 0.804,-0.5 0.356,0 0.567,-0.422 0.567,-1.133 0,-0.741 -0.208,-1.134 -0.6,-1.134 -0.33,0 -0.602,0.285 -0.605,0.634 m -1.437,6.199 c -0.12,0.312 -0.159,1.074 -0.088,1.695 0.119,1.03 0.169,0.98 0.574,-0.566 0.407,-1.552 0.02,-2.45 -0.486,-1.129 m -50.158,3.414 c 0,0.209 -0.9,0.793 -2,1.298 -1.1,0.504 -2,1.143 -2,1.42 0,0.276 -0.272,0.502 -0.604,0.502 -0.332,0 -0.912,0.36 -1.289,0.8 -0.377,0.44 -0.915,0.8 -1.196,0.8 -0.596,0 -0.683,0.646 -0.133,0.986 0.207,0.129 1.242,-0.586 2.3,-1.588 1.057,-1.003 2.414,-1.929 3.016,-2.059 0.601,-0.13 1.003,-0.382 0.894,-0.559 -0.195,-0.315 1.333,-1.011 1.898,-0.864 0.157,0.041 0.182,-0.193 0.057,-0.521 -0.253,-0.658 -0.943,-0.815 -0.943,-0.215 m 12.862,0.596 c 0.357,0.785 0.317,1.102 -0.209,1.628 -0.359,0.359 -0.653,0.816 -0.653,1.015 0,0.528 -3.299,4.718 -7.193,9.133 -4.584,5.2 -4.988,5.609 -8.207,8.317 -6.972,5.865 -9.089,7.41 -11.08,8.087 l -2.085,0.708 1.342,0.468 c 4.295,1.497 10.278,-1.256 17.456,-8.032 1.573,-1.485 2.999,-2.7 3.169,-2.7 0.526,0 -0.142,4.07 -0.784,4.78 -0.468,0.518 -0.499,0.779 -0.133,1.145 0.846,0.846 1.737,0.508 2.938,-1.116 0.647,-0.874 1.312,-1.594 1.477,-1.6 0.165,-0.005 0.3,-0.479 0.3,-1.052 0,-0.914 0.125,-1.012 1,-0.793 0.738,0.185 1,0.092 1,-0.356 0,-0.335 0.283,-0.608 0.629,-0.608 0.567,0 0.566,-0.062 -0.011,-0.639 -0.655,-0.655 -1.818,-0.511 -1.818,0.226 0,0.227 -0.255,0.413 -0.567,0.413 -0.311,0 -0.657,0.225 -0.768,0.5 -0.111,0.275 -0.216,-0.014 -0.233,-0.643 -0.024,-0.844 -0.189,-1.083 -0.632,-0.912 -0.401,0.153 -0.6,-0.017 -0.6,-0.515 0,-0.409 0.27,-0.848 0.6,-0.975 0.33,-0.126 0.6,-0.506 0.6,-0.842 0,-0.337 0.27,-0.613 0.6,-0.613 0.33,0 0.6,-0.188 0.6,-0.417 0,-0.229 0.36,-0.803 0.8,-1.275 0.44,-0.472 0.8,-1.076 0.8,-1.341 0,-0.265 0.27,-0.585 0.6,-0.712 0.33,-0.126 0.6,-0.664 0.6,-1.193 0,-0.53 0.27,-1.188 0.6,-1.462 0.876,-0.727 0.884,-9.6 0.009,-9.6 -0.482,0 -0.509,0.181 -0.147,0.976 m 36.19,1.524 c -0.43,1.606 -0.322,2.027 0.348,1.357 0.648,-0.648 0.824,-2.257 0.247,-2.257 -0.195,0 -0.462,0.405 -0.595,0.9 m -57.752,3.765 c -0.275,0.111 -0.5,0.47 -0.5,0.798 0,0.828 1.357,0.501 1.525,-0.368 0.135,-0.7 -0.106,-0.801 -1.025,-0.43 m 37,0.011 c -0.854,0.223 -0.937,1.324 -0.1,1.324 0.33,0 0.6,-0.255 0.6,-0.567 0,-0.311 0.225,-0.657 0.5,-0.768 0.612,-0.247 -0.041,-0.24 -1,0.011 m 19.714,0.898 c -0.228,0.425 -0.393,1.28 -0.368,1.9 0.029,0.685 0.119,0.85 0.231,0.421 0.101,-0.388 0.35,-0.602 0.553,-0.476 0.204,0.125 0.37,-0.412 0.37,-1.195 0,-1.612 -0.188,-1.767 -0.786,-0.65 M 44,49.656467 c 0,0.251 -0.315,0.711 -0.7,1.022 -0.632,0.511 -0.612,0.524 0.2,0.13 0.766,-0.371 1.304,-1.608 0.7,-1.608 -0.11,0 -0.2,0.205 -0.2,0.456 m 35.867,-0.189 c -0.461,0.46 -0.292,0.933 0.333,0.933 0.33,0 0.6,-0.27 0.6,-0.6 0,-0.625 -0.473,-0.794 -0.933,-0.333 m 13.346,0.8 c -0.017,1.658 -0.372,2.533 -1.029,2.533 -0.291,0 -0.658,0.405 -0.814,0.9 -1.362,4.325 -18.938,22.424 -24.57,25.302 l -1.8,0.92 1.469,0.277 c 3.843,0.728 8.123,-1.789 16.156,-9.499 1.776,-1.705 3.442,-3.1 3.702,-3.1 0.26,0 0.476,-0.315 0.479,-0.7 0.005,-0.579 0.07,-0.6 0.373,-0.121 0.287,0.454 0.424,0.346 0.637,-0.5 0.149,-0.593 0.521,-1.079 0.827,-1.079 0.307,0 0.557,-0.27 0.557,-0.6 0,-0.33 0.27,-0.6 0.6,-0.6 0.395,0 0.6,-0.395 0.6,-1.153 0,-0.817 0.233,-1.215 0.8,-1.363 0.459,-0.12 0.8,-0.546 0.8,-0.998 0,-0.433 0.27,-1.012 0.6,-1.286 0.33,-0.274 0.6,-1.029 0.6,-1.678 0,-0.648 0.243,-1.422 0.539,-1.718 0.775,-0.776 0.834,-5.021 0.083,-6.015 -0.57,-0.753 -0.597,-0.732 -0.609,0.478 M 78,51.000467 c 0,0.4 -0.4,0.6 -1.2,0.6 -0.8,0 -1.2,0.2 -1.2,0.6 0,0.33 -0.27,0.6 -0.6,0.6 -0.33,0 -0.604,0.225 -0.609,0.5 -0.004,0.275 -0.589,0.77 -1.3,1.1 -0.918,0.427 -1.257,0.831 -1.174,1.4 0.097,0.665 0.045,0.699 -0.308,0.2 -0.372,-0.526 -0.491,-0.513 -0.961,0.1 -0.295,0.385 -0.741,0.7 -0.992,0.7 -0.251,0 -0.456,0.27 -0.456,0.6 0,0.33 -0.27,0.6 -0.6,0.6 -0.33,0 -0.6,0.27 -0.6,0.6 0,0.33 0.171,0.6 0.379,0.6 0.542,0 2.64,-2.029 2.524,-2.44 -0.054,-0.189 0.417,-0.284 1.047,-0.21 0.948,0.11 1.111,0.005 0.951,-0.609 -0.142,-0.54 0.024,-0.741 0.61,-0.741 0.442,0 0.907,-0.27 1.034,-0.6 0.126,-0.33 0.516,-0.6 0.866,-0.6 0.35,0 0.534,-0.165 0.409,-0.367 -0.125,-0.203 0.315,-0.487 0.977,-0.632 0.661,-0.146 1.203,-0.52 1.203,-0.833 0,-0.312 0.27,-0.568 0.6,-0.568 0.33,0 0.6,-0.27 0.6,-0.6 0,-0.33 -0.27,-0.6 -0.6,-0.6 -0.33,0 -0.6,0.27 -0.6,0.6 m -36.599,0.998 c -0.153,0.248 -0.711,0.616 -1.24,0.817 -0.528,0.201 -0.961,0.64 -0.961,0.975 0,0.684 1.016,0.831 1.404,0.203 0.138,-0.223 0.417,-0.304 0.619,-0.179 0.202,0.125 0.254,-0.07 0.114,-0.434 -0.143,-0.372 -0.015,-0.808 0.293,-0.999 0.301,-0.185 0.435,-0.449 0.298,-0.586 -0.136,-0.136 -0.373,-0.045 -0.527,0.203 m 59.899,2.267 c -0.733,0.296 -0.645,2.535 0.1,2.535 0.419,0 0.6,-0.422 0.6,-1.4 0,-0.77 -0.045,-1.386 -0.1,-1.368 -0.055,0.017 -0.325,0.122 -0.6,0.233 m -1.7,4.164 c 0,0.235 -0.225,0.681 -0.5,0.99 -0.275,0.308 -0.86,1.036 -1.3,1.617 -0.44,0.58 -1.115,1.345 -1.5,1.698 -0.385,0.354 -0.7,1.035 -0.7,1.512 0,0.478 -0.27,0.972 -0.6,1.099 -0.383,0.147 -0.605,0.776 -0.613,1.742 -0.007,0.832 -0.277,1.862 -0.6,2.289 -0.804,1.063 -0.794,3.078 0.013,2.769 0.33,-0.127 0.6,-0.678 0.6,-1.225 0,-0.546 0.36,-1.451 0.8,-2.011 0.44,-0.559 0.8,-1.241 0.8,-1.514 0,-0.273 0.27,-0.721 0.6,-0.995 0.33,-0.274 0.6,-0.842 0.6,-1.262 0,-0.419 0.27,-0.867 0.6,-0.993 0.33,-0.127 0.6,-0.667 0.6,-1.2 0,-0.534 0.27,-1.074 0.6,-1.2 0.33,-0.127 0.6,-0.667 0.6,-1.2 0,-0.534 0.27,-1.074 0.6,-1.2 0.33,-0.127 0.6,-0.481 0.6,-0.788 0,-0.306 -0.27,-0.557 -0.6,-0.557 -0.33,0 -0.6,0.193 -0.6,0.429 m -33.078,1.03 c -0.262,0.106 -0.386,0.431 -0.274,0.723 0.24,0.625 1.854,0.323 1.643,-0.308 -0.17,-0.51 -0.719,-0.677 -1.369,-0.415 m 20.864,9.647 c -0.227,0.162 -0.437,0.958 -0.466,1.77 -0.095,2.62 -2.837,6.627 -6.242,9.122 -3.346,2.453 -9.47,8.364 -12.433,12.002 -3.123,3.835 -4.792,5.71 -7.099,7.978 -2.718,2.671003 -8.03,7.622003 -8.178,7.622003 -0.07,0 -0.992,0.828 -2.048,1.84 -1.735,1.663 -5.312,4.692 -8.691,7.36 -9.428,7.444 -11.838,10 -9.429,10 0.719,0 1.2,-0.209 1.2,-0.521 0,-0.561 1.893,-2.426 5.981,-5.891 1.42,-1.203 3.079,-2.683 3.687,-3.288 0.608,-0.605 1.189,-1.1 1.292,-1.1 0.103,0 1.089,-0.855 2.192,-1.9 1.104,-1.045 3.295,-3.07 4.87,-4.5 1.575,-1.43 3.735,-3.41 4.8,-4.4 1.065,-0.99 2.387,-2.16 2.938,-2.6 0.552,-0.44 1.011,-1.025 1.022,-1.3 0.01,-0.275 0.288,-0.5 0.618,-0.5 0.33,0 0.6,-0.27 0.6,-0.6 0,-0.330003 0.174,-0.600003 0.387,-0.600003 0.213,0 1.507,-1.079 2.875,-2.397 1.368,-1.318 2.769,-2.487 3.113,-2.597 0.344,-0.11 2.34,-1.866 4.436,-3.903 2.097,-2.037 6.057,-5.677 8.8,-8.09 2.744,-2.412 5.562,-4.977 6.262,-5.7 0.7,-0.722 1.465,-1.313 1.7,-1.313 0.235,0 0.427,-0.27 0.427,-0.6 0,-0.33 0.27,-0.6 0.6,-0.6 0.33,0 0.6,-0.186 0.6,-0.413 0,-0.227 0.405,-0.576 0.9,-0.775 0.895,-0.359 0.894,-0.361 -0.104,-0.387 -0.591,-0.015 -1.209,0.304 -1.503,0.775 -0.275,0.44 -0.843,0.8 -1.263,0.8 -0.42,0 -0.854,0.225 -0.965,0.5 -0.202,0.5 -0.418,-3.504 -0.281,-5.2 0.08,-0.979 0.023,-1.035 -0.598,-0.594 m -75.765,7.255 c -0.346,0.647 -0.289,0.729 0.386,0.553 0.436,-0.114 0.793,-0.456 0.793,-0.761 0,-0.802 -0.705,-0.678 -1.179,0.208 m 85.327,25.431003 c -0.331,0.861 -0.062,1.051 0.548,0.389 0.315,-0.342 0.351,-0.629 0.097,-0.785 -0.219,-0.136 -0.51,0.042 -0.645,0.396 m -3.148,7.163 c -0.753,0.897 -0.736,1.727 0.02,0.984 0.37,-0.363 0.607,-0.84 0.526,-1.06 -0.089,-0.244 -0.302,-0.215 -0.546,0.076 m -92.275,7.977 c -0.293,0.293 -0.756,0.458 -1.029,0.367 -0.273,-0.091 -0.496,0.119 -0.496,0.468 0,0.366 0.337,0.633 0.8,0.633 0.444,0 0.8,-0.267 0.8,-0.6 0,-0.33 0.27,-0.6 0.6,-0.6 0.33,0 0.6,-0.18 0.6,-0.4 0,-0.564 -0.646,-0.497 -1.275,0.132 m 81.391,5.468 c -0.115,0.44 -0.458,0.8 -0.763,0.8 -0.304,0 -0.553,0.27 -0.553,0.6 0,0.803 0.492,0.758 1.211,-0.113 1.736,-2.101 1.73,-2.087 1.001,-2.087 -0.378,0 -0.781,0.36 -0.896,0.8 m -3.583,3.8 c 0,0.33 0.24,0.6 0.534,0.6 0.293,0 0.533,-0.27 0.533,-0.6 0,-0.33 -0.24,-0.6 -0.533,-0.6 -0.294,0 -0.534,0.27 -0.534,0.6"
     id="path3" />
  <path
     style="fill:#eaa4e2;fill-rule:evenodd;stroke:none"
     inkscape:connector-curvature="0"
     d="m 113,0.40046685 c 0.137,0.221 -0.151,0.4 -0.643,0.4 -0.49,0 -0.786,0.105 -0.658,0.23300005 0.128,0.128 -0.005,0.803 -0.295,1.5 -0.29,0.697 -0.635,2.257 -0.767,3.467 -0.132,1.21 -0.669,4.6300001 -1.193,7.6000001 -0.676,3.828 -0.832,5.551 -0.535,5.918 0.308,0.381 0.192,0.676 -0.441,1.12 -1.379,0.965 -0.138,2.562 1.991,2.562 1.538,0 2.746,-1.132 1.611,-1.51 -0.309,-0.103 -0.207,-0.39 0.293,-0.824 0.477,-0.415 0.997,-1.797 1.379,-3.666 0.625,-3.065 1.356,-6.303 2.505,-11.1000001 1.145,-4.78 1.14,-5.037 -0.103,-5.60000005 -1.326,-0.601 -3.496,-0.67 -3.144,-0.1 M 110.643,27.033467 c -0.134,0.348 -0.243,0.996 -0.243,1.439 0,0.444 -0.253,1.374 -0.563,2.068 -0.309,0.693 -0.659,2.321 -0.777,3.617 -0.118,1.296 -0.404,2.547 -0.637,2.78 -0.233,0.233 -0.423,1.364 -0.423,2.514 0,1.209 -0.225,2.317 -0.533,2.625 -0.293,0.293 -0.654,1.691 -0.802,3.106 -0.148,1.415 -0.447,2.683 -0.665,2.818 -0.564,0.349 -1.005,4.8 -0.475,4.8 0.229,0 0.545,-1.035 0.7,-2.3 0.156,-1.265 0.437,-2.4 0.626,-2.522 0.189,-0.122 0.449,-1.112 0.578,-2.2 0.129,-1.088 0.385,-2.338 0.569,-2.778 0.183,-0.44 0.509,-1.52 0.722,-2.4 0.214,-0.88 0.934,-3.67 1.602,-6.2 1.668,-6.326 1.91,-8 1.156,-8 -0.326,0 -0.702,0.285 -0.835,0.633 m -50.125,13.941 c -0.182,0.326 -1.426,1.456 -2.763,2.51 -3.572,2.814 -7.805,6.277 -9.003,7.365 -0.577,0.523 -1.422,1.256 -1.879,1.629 -4.959,4.048 -12.719,11.608 -13.08,12.742 -0.272,0.858 0.788,3.121 1.608,3.436 0.453,0.174 2.944,-1.318 3.799,-2.275 0.11,-0.123 2.18,-1.907 4.6,-3.964 5.496,-4.671 7.059,-6.095 18.147,-16.533 2.683,-2.526 3.92,-4.328 3.471,-5.055 -0.375,-0.607 -4.548,-0.483 -4.9,0.145 m 3.469,1.45 c -0.228,0.427 -0.544,0.779 -0.701,0.782 -0.157,0.003 -1.096,0.746 -2.086,1.651 -0.99,0.905 -2.487,2.151 -3.326,2.769 -0.839,0.618 -2.389,1.9 -3.445,2.849 -1.055,0.949 -2.799,2.471 -3.874,3.383 -1.075,0.912 -2.345,1.992 -2.821,2.4 -0.477,0.408 -1.287,1.082 -1.8,1.497 -0.819,0.661 -2.547,2.124 -6.905,5.845 -0.644,0.55 -1.499,1.315 -1.9,1.7 -1.954,1.876 -2.328,0.741 -0.543,-1.646 5.155,-6.892 30.05,-26.18 27.401,-21.23 m 19.367,8.907 c -10.821,8.48 -23.007,19.237 -23.909,21.105 -0.835,1.73 1.505,4.579 2.868,3.492 1.724,-1.375 2.687,-2.188 3.396,-2.869 0.425,-0.407 1.789,-1.651 3.032,-2.764 3.931,-3.523 10.011,-9.155 14.408,-13.35 2.338,-2.23 5,-4.66 5.915,-5.4 2.58,-2.086 2.66,-3.415 0.224,-3.724 -1.079,-0.136 -1.902,0.351 -5.934,3.51 m 4.235,-0.648 c -0.544,0.375 -1.499,1.186 -2.123,1.803 -0.623,0.616 -1.326,1.001 -1.561,0.855 -0.245,-0.151 -0.313,-0.077 -0.158,0.173 0.148,0.24 0.015,0.583 -0.296,0.761 -0.74,0.425 -4.06,3.202 -5.65,4.725 -0.689,0.66 -2.042,1.83 -3.007,2.6 -2.751,2.195 -5.57,4.711 -8.394,7.492 -1.43,1.408 -3.23,3.179 -4,3.935 -1.537,1.51 -2.404,1.754 -2.393,0.673 0.011,-0.973 8.656,-9.418 13.796,-13.476 1.099,-0.867 2.267,-1.818 2.597,-2.113 0.33,-0.296 2.296,-1.746 4.369,-3.224 2.073,-1.478 4.323,-3.177 5,-3.775 0.677,-0.599 1.586,-1.094 2.02,-1.1 0.704,-0.011 0.683,0.061 -0.2,0.671 m 16.698,4.47 c -0.173,0.965 -0.218,1.85 -0.1,1.967 0.452,0.452 0.658,-0.306 0.538,-1.978 l -0.125,-1.742 -0.313,1.753 m -1.64,3.947 c -0.135,0.385 -0.871,1.78 -1.635,3.1 -1.821,3.145 -4.618,8.955 -4.591,9.54 0.038,0.859 -3.018,6.627 -3.521,6.644 -0.275,0.009 -0.5,-0.254 -0.5,-0.584 0,-0.33 -0.093,-0.6 -0.206,-0.6 -0.452,0 -4.594,2.936 -4.594,3.257 0,0.572 1.468,0.384 2,-0.257 0.274,-0.33 0.681,-0.6 0.905,-0.6 0.224,0 0.64,-0.315 0.924,-0.7 0.375,-0.508 0.639,-0.58 0.961,-0.263 0.325,0.319 0.278,0.575 -0.173,0.949 -0.822,0.682 -0.781,1.214 0.094,1.214 0.952,0 1.7,-0.938 3.653,-4.581 0.903,-1.685 2.341,-4.138 3.194,-5.452 0.854,-1.313 1.966,-3.508 2.471,-4.878 0.505,-1.369 1.335,-3.046 1.844,-3.727 0.949,-1.267 1.112,-2.014 0.684,-3.129 -0.324,-0.845 -1.203,-0.805 -1.51,0.067 m -17.14,23.102 c -0.551,0.551 -1.665,1.529 -2.477,2.174 -1.172,0.931 -7.868,7.098 -12.296,11.324 -0.949,0.906 -0.926,1.695 0.099,3.353 1.061,1.717003 1.294,1.695003 3.522,-0.326 2.437,-2.21 11.733,-10.903 13.808,-12.912 l 1.637,-1.585 -1.2,-0.217 c -1.006,-0.182 -1.22,-0.426 -1.325,-1.515 -0.151,-1.561 -0.453,-1.611 -1.768,-0.296 m 0.247,2.314 c -0.297,0.174 -1.472,1.209 -2.61,2.3 -2.082,1.997 -2.403,2.191 -2.859,1.735 -0.247,-0.246 2.733,-3.335 3.248,-3.368 0.147,-0.009 0.713,-0.554 1.258,-1.211 0.869,-1.047 1.022,-1.107 1.247,-0.483 0.149,0.413 0.03,0.843 -0.284,1.027 m -5.754,4.66 c 0,0.472 -0.78,0.977 -1.067,0.691 -0.286,-0.287 0.219,-1.067 0.691,-1.067 0.207,0 0.376,0.169 0.376,0.376 m -2.367,2.481 c -1.147,1.231 -1.474,0.682 -0.348,-0.587 0.503,-0.567 0.973,-0.867 1.044,-0.665 0.07,0.202 -0.243,0.765 -0.696,1.252"
     id="path4" />
  <path
     style="fill:#d48cc8;fill-rule:evenodd;stroke:none"
     inkscape:connector-curvature="0"
     d="m 117.969,2.7004669 c -0.016,0.605 -0.097,1.37 -0.18,1.7 -0.082,0.33 -0.514,2.22 -0.961,4.2 -1.885,8.3570001 -2.764,11.7830001 -3.589,13.9880001 -0.514,1.374 -0.781,2.766 -0.648,3.375 0.351,1.6 0.264,1.989 -4.954,22.166 -1.439,5.565 -2.218,9.775 -1.198,6.471 1.559,-5.044 6.462,-25.339 6.648,-27.513 0.127,-1.492 0.385,-2.808 0.572,-2.924 0.188,-0.115 0.341,-0.661 0.341,-1.213 0,-0.551 0.207,-1.39 0.46,-1.863 0.379,-0.707 4.334,-18.2000001 4.339,-19.1870001 0.004,-0.90100005 -0.804,-0.121 -0.83,0.8 M 62.533,39.800467 c 0,0.33 0.251,0.6 0.557,0.6 0.307,0 0.455,-0.165 0.331,-0.366 -0.124,-0.201 0,-0.457 0.277,-0.568 0.276,-0.112 0.127,-0.217 -0.331,-0.234 -0.488,-0.019 -0.834,0.217 -0.834,0.568 m -4.139,1.702 c -0.855,0.899 -0.882,1.001 -0.194,0.724 0.44,-0.177 1.017,-0.33 1.283,-0.34 0.525,-0.021 1.066,-1.071 0.726,-1.41 -0.115,-0.115 -0.212,0.046 -0.215,0.357 -0.005,0.406 -0.092,0.433 -0.306,0.095 -0.21,-0.329 -0.601,-0.156 -1.294,0.574 m 7.806,0.004 c -0.22,0.162 -0.46,0.564 -0.533,0.893 -0.073,0.33 -0.818,1.32 -1.655,2.2 -7.241,7.616 -9.446,9.801 -9.894,9.801 -0.285,0 -0.518,0.186 -0.518,0.413 0,0.228 -0.546,0.948 -1.214,1.6 -0.667,0.653 -1.067,1.187 -0.887,1.187 0.607,0 14.807,-14.593 15.082,-15.5 0.293,-0.967 0.24,-1.05 -0.381,-0.594 m 21.5,5.222 c -0.495,0.07 -0.9,0.283 -0.9,0.473 0,0.19 -0.36,0.459 -0.8,0.599 -0.44,0.14 -0.8,0.512 -0.8,0.827 0,0.315 -0.167,0.573 -0.371,0.573 -0.205,0 -0.61,0.229 -0.9,0.508 -0.291,0.28 -1.389,1.205 -2.439,2.057 -1.051,0.851 -1.828,1.631 -1.726,1.732 0.101,0.101 0.42,-0.02 0.71,-0.269 0.289,-0.249 1.156,-1.003 1.926,-1.675 0.77,-0.672 1.94,-1.504 2.6,-1.849 0.66,-0.345 1.382,-0.876 1.606,-1.18 0.394,-0.538 1.654,-0.73 3.884,-0.592 1.347,0.084 1.203,2.177 -0.234,3.393 -0.854,0.722 -5.152,4.722 -8.756,8.148 -1.045,0.993 -1.9,1.663 -1.9,1.489 0,-0.175 -0.444,0.284 -0.986,1.019 -0.542,0.735 -1.478,1.715 -2.081,2.177 -0.602,0.463 -2.202,1.922 -3.556,3.242 -1.354,1.32 -3.507,3.3 -4.786,4.4 -1.278,1.1 -2.965,2.57 -3.749,3.267 -0.784,0.697 -1.564,1.181 -1.734,1.076 -0.627,-0.388 -1.162,0.31 -0.681,0.889 0.443,0.534 2.599,-0.707 4.173,-2.401 0.22,-0.237 1.21,-1.133 2.2,-1.991 8.162,-7.072 23.037,-21.497 23.424,-22.714 0.128,-0.406 0.401,-0.634 0.605,-0.508 0.538,0.332 0.432,-0.304 -0.186,-1.118 -0.292,-0.385 -0.837,-0.7 -1.211,-0.7 -0.408,0 -0.566,-0.183 -0.396,-0.458 0.195,-0.315 -0.042,-0.396 -0.763,-0.258 -0.575,0.11 -1.096,0.091 -1.159,-0.042 -0.063,-0.134 -0.519,-0.185 -1.014,-0.114 m -12.3,9.887 c -1.98,1.646 -4.472,3.712 -5.539,4.591 -5.994,4.942 -12.228,11.479 -9.061,9.501 0.44,-0.275 0.8,-0.661 0.8,-0.858 0,-0.59 7.709,-7.83 8.899,-8.357 0.605,-0.268 1.101,-0.713 1.101,-0.99 0,-0.276 0.135,-0.503 0.3,-0.504 0.165,-10e-4 0.957,-0.586 1.759,-1.3 0.802,-0.714 1.972,-1.69 2.6,-2.169 1.961,-1.497 3.408,-2.983 2.841,-2.917 -0.055,0.006 -1.72,1.358 -3.7,3.003 m -36.989,2.285 c -1.936,1.815 -3.54,3.435 -3.565,3.6 -0.107,0.699 1.248,0.229 1.438,-0.5 0.115,-0.44 0.458,-0.8 0.763,-0.8 0.304,0 0.553,-0.18 0.553,-0.4 0,-0.494 1.471,-2 1.953,-2 0.195,0 0.445,-0.351 0.558,-0.78 0.112,-0.429 0.808,-1.148 1.546,-1.598 0.739,-0.451 1.102,-0.82 0.808,-0.821 -0.294,0 -2.118,1.484 -4.054,3.299 m 66.825,-1.264 c -0.27,0.903 -0.418,1.716 -0.328,1.806 0.09,0.09 0.385,-0.576 0.656,-1.478 0.27,-0.903 0.418,-1.716 0.328,-1.806 -0.09,-0.09 -0.385,0.576 -0.656,1.478 M 49,59.410467 c -2.418,2.102 -2.537,2.19 -2.95,2.19 -0.211,0 -0.443,0.146 -0.517,0.324 -0.073,0.178 -1.037,1.033 -2.142,1.9 -1.106,0.867 -2.789,2.296 -3.742,3.176 -0.952,0.88 -2.073,1.578 -2.49,1.552 -0.496,-0.031 -0.759,0.216 -0.759,0.714 0,0.612 0.138,0.683 0.7,0.362 1.656,-0.947 12.134,-9.62 13.249,-10.965 0.847,-1.023 0.404,-0.778 -1.349,0.747 m 43.389,16.069 c -0.544,0.374 -2.502,1.949 -4.352,3.5 -1.85,1.552 -4.01,3.356 -4.8,4.009 -0.79,0.653 -3.777,3.337 -6.637,5.964 -2.86,2.626 -5.446,4.999 -5.746,5.272 -0.301,0.274 -0.477,0.706 -0.393,0.96 0.085,0.255 1.681,-1.025 3.547,-2.845 7.424,-7.238 16.303,-14.952 16.834,-14.625 0.087,0.054 0.878,-0.579 1.758,-1.406 1.651,-1.552 1.531,-2.025 -0.211,-0.829 m -0.689,5.82 c -0.715,0.229 -1.3,0.571 -1.3,0.759 0,0.611 1.249,0.362 2.291,-0.458 1.116,-0.878 0.957,-0.926 -0.991,-0.301 m -4.355,0.901 c -0.378,0.985 0.165,1.8 1.2,1.8 1.333,0 1.758,1.233 0.674,1.953 -0.458,0.305 -1.415,1.067 -2.126,1.694 -0.711,0.627 -1.439,1.143 -1.617,1.147 -0.178,0.003 -0.212,0.186 -0.076,0.406 0.136,0.22 0.044,0.4 -0.205,0.4 -0.567,0 -1.595,1.005 -1.595,1.559 0,0.229 -0.315,0.303 -0.7,0.165 -0.385,-0.138 -0.576,-0.114 -0.425,0.054 0.331,0.367 -1.441,2.078 -2.975,2.873 -0.605,0.313 -1.1,0.717 -1.1,0.898 0,0.18 -0.99,1.334 -2.2,2.563 -1.21,1.23 -2.2,2.151 -2.2,2.048 0,-0.104 -0.37,0.01 -0.821,0.251003 -0.814,0.436 -0.812,0.448 0.163,1.215 1.092,0.858 1.858,1.001 1.858,0.344 0,-0.444 8.063,-8.487003 12.082,-12.051003 4.488,-3.981 5.059,-5.506 2.211,-5.903 -1.453,-0.202 -1.68,-0.362 -1.598,-1.126 0.109,-1.016 -0.208,-1.183 -0.55,-0.29"
     id="path5" />
  <path
     style="fill:#dc8cc4;fill-rule:evenodd;stroke:none"
     inkscape:connector-curvature="0"
     d="m 109.523,0.70046685 c -0.331,0.38500005 -0.72,0.90900005 -0.864,1.16500005 -0.255,0.451 -2.178,12.8270001 -2.458,15.8230001 -0.077,0.819 -0.257,1.679 -0.4,1.91 -0.429,0.694 0.214,2.802 0.854,2.802 0.326,0 0.489,0.168 0.362,0.372 -0.37,0.599 0.625,0.982 2.296,0.883 1.452,-0.085 1.534,-0.032 1.259,0.827 -0.762,2.383 -1.489,5.097 -1.855,6.918 -0.221,1.1 -0.551,2.295 -0.734,2.655 -0.183,0.36 -0.46,1.8 -0.615,3.2 -0.155,1.4 -0.526,2.9 -0.825,3.334 -0.298,0.434 -0.543,1.538 -0.543,2.454 0,0.916 -0.269,2.181 -0.598,2.811 -0.328,0.63 -0.605,1.776 -0.614,2.546 -0.009,0.77 -0.274,1.85 -0.588,2.4 -0.314,0.55 -0.578,1.669 -0.586,2.486 -0.008,0.818 -0.308,2.168 -0.668,3 -1.085,2.515 -3.239,6.917 -5.144,10.514 -0.991,1.87 -1.801,3.721 -1.801,4.113 -0.001,0.391 -0.271,0.816 -0.601,0.942 -0.337,0.13 -0.6,0.725 -0.6,1.357 0,0.846 -0.473,1.535 -1.9,2.77 -1.045,0.904 -1.585,1.528 -1.2,1.388 0.482,-0.176 0.7,-0.056 0.7,0.387 0,0.354 0.225,0.636 0.5,0.627 0.503,-0.017 3.559,-5.785 3.521,-6.644 -0.027,-0.585 2.77,-6.395 4.591,-9.54 0.764,-1.32 1.5,-2.715 1.635,-3.1 0.307,-0.872 1.186,-0.912 1.51,-0.067 0.428,1.115 0.265,1.862 -0.684,3.129 -0.509,0.681 -1.339,2.358 -1.844,3.727 -0.505,1.37 -1.617,3.565 -2.471,4.878 -0.853,1.314 -2.304,3.793 -3.224,5.509 -0.92,1.716 -1.92,3.367 -2.223,3.67 -1.053,1.053 -0.153,0.927 1.301,-0.183 1.028,-0.783 2.004,-2.224 3.271,-4.827 0.993,-2.041 2.038,-3.905 2.323,-4.141 0.285,-0.237 1.106,-1.907 1.823,-3.713 0.718,-1.805 1.617,-3.734 1.997,-4.285 0.821,-1.192 1.073,-2.407 0.643,-3.094 -0.172,-0.273 -0.036,-1.443 0.301,-2.6 0.338,-1.156 1.233,-4.623 1.99,-7.703 0.756,-3.08 2.031,-8.12 2.833,-11.2 2.33,-8.947 2.702,-10.848 2.398,-12.237 -0.133,-0.609 0.134,-2.001 0.648,-3.375 0.481,-1.286 1.302,-4.149 1.826,-6.363 1.811,-7.6630001 2.59,-11.2320001 2.801,-12.8250001 0.117,-0.88 0.37,-1.767 0.564,-1.97 0.559,-0.59000005 -0.414,-1.43000004964 -1.655,-1.43000004964 -0.62,0 -1.242,0.18399999964 -1.381,0.40999999964 -0.139,0.225 -0.105,0.384 0.076,0.353 1.995,-0.347 2.047,0.023 0.756,5.43700005 -1.242,5.2080001 -1.87,7.9900001 -2.484,11.0000001 -0.382,1.869 -0.902,3.251 -1.379,3.666 -0.5,0.434 -0.602,0.721 -0.293,0.824 1.135,0.378 -0.073,1.51 -1.611,1.51 -2.129,0 -3.37,-1.597 -1.991,-2.562 0.633,-0.444 0.749,-0.739 0.441,-1.12 -0.297,-0.367 -0.141,-2.09 0.535,-5.918 0.524,-2.97 1.061,-6.3900001 1.193,-7.6000001 0.132,-1.21 0.477,-2.77 0.767,-3.467 0.29,-0.697 0.423,-1.372 0.295,-1.5 -0.128,-0.12800005 0.168,-0.23300005 0.658,-0.23300005 0.492,0 0.78,-0.179 0.643,-0.4 -0.411,-0.666 -2.827,-0.457 -3.477,0.3 m 2.28,27.40000015 c -0.148,0.935 -0.814,3.77 -1.481,6.3 -0.668,2.53 -1.388,5.32 -1.602,6.2 -0.213,0.88 -0.539,1.96 -0.722,2.4 -0.184,0.44 -0.44,1.69 -0.569,2.778 -0.129,1.088 -0.389,2.078 -0.578,2.2 -0.189,0.122 -0.47,1.257 -0.626,2.522 -0.155,1.265 -0.471,2.3 -0.7,2.3 -0.53,0 -0.089,-4.451 0.475,-4.8 0.218,-0.135 0.517,-1.403 0.665,-2.818 0.148,-1.415 0.509,-2.813 0.802,-3.106 0.308,-0.308 0.533,-1.416 0.533,-2.625 0,-1.15 0.19,-2.281 0.423,-2.514 0.233,-0.233 0.519,-1.484 0.637,-2.78 0.118,-1.296 0.468,-2.924 0.777,-3.617 0.31,-0.694 0.563,-1.624 0.563,-2.068 0,-1.25 0.427,-2.072 1.078,-2.072 0.472,0 0.538,0.345 0.325,1.7 m -50.972,11.841 c -0.444,0.831 1.322,0.782 1.837,-0.051 0.148,-0.239 0.061,-0.293 -0.206,-0.128 -0.254,0.157 -0.462,0.095 -0.462,-0.138 0,-0.686 -0.739,-0.486 -1.169,0.317 m 4.548,0.825 c 0.488,0.79 -0.672,2.519 -3.432,5.118 -11.05,10.402 -12.63,11.842 -18.147,16.54 -2.42,2.061 -4.639,3.98 -4.931,4.264 -0.292,0.285 -0.877,0.702 -1.3,0.929 -0.423,0.226 -0.769,0.569 -0.769,0.762 0,0.723 1.225,0.127 2.875,-1.4 0.938,-0.869 2.61,-2.288 3.716,-3.155 1.105,-0.867 2.069,-1.722 2.142,-1.9 0.074,-0.178 0.312,-0.324 0.529,-0.324 0.217,0 0.637,-0.225 0.932,-0.5 0.295,-0.275 1.084,-0.919 1.753,-1.43 1.979,-1.515 4.853,-4.382 4.853,-4.843 0,-0.235 0.233,-0.427 0.518,-0.427 0.449,0 2.487,-2.018 9.956,-9.864 1.545,-1.623 2.473,-4.136 1.526,-4.136 -0.246,0 -0.345,0.165 -0.221,0.366 m -7.379,1.678 c -0.77,0.462 -1.985,1.452 -2.699,2.198 -0.715,0.747 -1.457,1.358 -1.65,1.358 -0.449,0 -3.651,2.917 -3.651,3.327 0,0.316 1.69,-0.948 6.742,-5.044 2.476,-2.007 3.176,-2.688 2.758,-2.682 -0.055,10e-4 -0.73,0.38 -1.5,0.843 m 32.826,7.156 c -0.037,0.33 -0.816,1.2 -1.731,1.934 -2.837,2.275 -9.495,8.778 -9.495,9.274 0,0.259 0.855,-0.342 1.9,-1.335 4.423,-4.204 7.962,-7.473 8.845,-8.168 0.613,-0.483 0.875,-1.019 0.746,-1.525 -0.127,-0.499 -0.222,-0.564 -0.265,-0.18 m -42.807,1.177 c -0.534,0.647 -1.117,1.086 -1.295,0.976 -0.178,-0.11 -0.325,-0.055 -0.327,0.123 -10e-4,0.178 -0.629,0.75 -1.394,1.272 -0.765,0.521 -1.306,1.085 -1.202,1.254 0.105,0.169 -0.205,0.41 -0.688,0.537 -0.483,0.126 -0.758,0.349 -0.612,0.496 0.147,0.146 -0.297,0.649 -0.986,1.116 -0.689,0.467 -1.342,1.117 -1.45,1.445 -0.173,0.526 1.421,-0.752 5.812,-4.66 0.702,-0.625 1.827,-1.584 2.5,-2.132 0.672,-0.547 1.223,-1.132 1.223,-1.3 0,-0.621 -0.637,-0.27 -1.581,0.873 m 35.476,-0.113 c -0.822,0.585 -1.495,1.23 -1.495,1.433 0,0.204 0.72,-0.2 1.6,-0.897 1.401,-1.11 1.859,-1.6 1.495,-1.6 -0.057,0 -0.777,0.479 -1.6,1.064 m -2.838,2.336 c -0.33,0.33 -0.784,0.6 -1.009,0.6 -0.224,0 -0.552,0.228 -0.728,0.507 -0.176,0.278 -0.919,0.998 -1.651,1.6 -0.732,0.601 -1.229,1.093 -1.104,1.093 0.317,0 4.962,-3.558 5.247,-4.02 0.359,-0.581 -0.083,-0.452 -0.755,0.22 m 23.968,4.108 c -0.498,0.498 -0.635,-0.294 -0.338,-1.955 l 0.313,-1.753 0.125,1.742 c 0.069,0.958 0.024,1.843 -0.1,1.966 m -30.048,0.659 c -0.427,0.312 -0.67,0.673 -0.541,0.803 0.13,0.129 0.562,-0.126 0.962,-0.568 0.85,-0.939 0.675,-1.036 -0.421,-0.235 m -36.277,1.866 c -0.385,0.422 -0.548,0.767 -0.362,0.767 0.186,0 0.664,-0.36 1.062,-0.8 0.398,-0.44 0.561,-0.785 0.362,-0.767 -0.199,0.019 -0.677,0.379 -1.062,0.8 m 34.143,-0.01 c -0.526,0.438 -0.872,0.882 -0.768,0.985 0.104,0.104 0.611,-0.26 1.126,-0.81 1.123,-1.194 0.961,-1.273 -0.358,-0.175 m 4.13,3.5 c -1.324,1.252 -4.157,3.855 -6.296,5.783 -2.139,1.928 -4.211,3.818 -4.605,4.2 -0.394,0.382 -1.304,1.171 -2.022,1.753 -0.718,0.583 -1.154,1.153 -0.97,1.267 0.185,0.114 0.978,-0.362 1.762,-1.059 0.784,-0.697 2.471,-2.167 3.749,-3.267 1.279,-1.1 3.426,-3.08 4.773,-4.4 1.346,-1.32 2.935,-2.754 3.531,-3.186 1.127,-0.82 2.883,-2.97 2.63,-3.222 -0.08,-0.08 -1.228,0.879 -2.552,2.131 M 69,62.519467 c -2.272,1.863 -7.558,7.059 -7.363,7.239 0.09,0.083 2.219,-1.809 4.732,-4.203 4.686,-4.467 5.445,-5.342 2.631,-3.036 m -35.152,0.323 c -1.008,0.971 -0.73,4.158 0.516,5.907 0.937,1.316 2.036,1.668 2.036,0.651 0,-0.33 -0.273,-0.6 -0.606,-0.6 -0.943,0 -2.257,-2.423 -1.953,-3.6 0.143,-0.55 0.267,-1.217 0.276,-1.482 0.009,-0.266 0.154,-0.398 0.322,-0.294 0.438,0.271 0.759,-0.383 0.435,-0.885 -0.177,-0.273 -0.54,-0.166 -1.026,0.303 m 25.169,7.94 c -1.373,1.516 0.73,6.837 2.688,6.802 0.844,-0.016 0.824,-0.078 -0.349,-1.1 -1.954,-1.703 -2.34,-2.714 -1.736,-4.544 0.602,-1.825 0.382,-2.248 -0.603,-1.158 m 30.383,7.853 -1.2,1.031 1.3,-0.86 c 0.715,-0.473 1.3,-0.938 1.3,-1.033 0,-0.3 -0.169,-0.195 -1.4,0.862 m 1.945,0.365 c -0.127,0.33 -0.459,0.6 -0.739,0.6 -0.279,0 -0.732,0.27 -1.006,0.6 -0.695,0.837 -2.163,0.803 -1.839,-0.043 0.148,-0.386 -0.289,-0.186 -1.095,0.5 -0.738,0.629 -1.284,1.214 -1.213,1.3 0.07,0.086 0.431,-0.094 0.802,-0.4 0.521,-0.43 0.713,-0.444 0.842,-0.06 0.124,0.368 0.373,0.387 0.959,0.073 0.435,-0.233 1.286,-0.314 1.892,-0.181 0.605,0.132 1.54,0.066 2.076,-0.149 0.697,-0.278 0.776,-0.397 0.276,-0.415 -0.857,-0.031 -0.902,-0.559 -0.104,-1.221 0.327,-0.272 0.497,-0.654 0.376,-0.849 -0.338,-0.547 -0.972,-0.421 -1.227,0.245 m -5.31,8.809 c -2.159,2.093 -3.199,3.366 -2.9,3.551 0.256,0.158 0.465,0.084 0.465,-0.165 0,-0.584 1.011,-1.595 1.595,-1.595 0.249,0 0.341,-0.18 0.205,-0.4 -0.136,-0.22 -0.102,-0.403 0.076,-0.406 0.178,-0.004 0.906,-0.52 1.617,-1.147 0.711,-0.627 1.701,-1.417 2.2,-1.755 0.586,-0.398 0.766,-0.745 0.507,-0.981 -0.253,-0.231 -1.637,0.834 -3.765,2.898 m -6.979,-0.371 c -1.288,1.214 -2.268,2.283 -2.177,2.375 0.092,0.091 1.231,-0.909 2.531,-2.223 2.963,-2.994 2.756,-3.083 -0.354,-0.152 m 1.466,5.622 c -1.238,1.188 -1.312,1.333 -0.395,0.774 1.381,-0.842 2.811,-2.234 2.295,-2.234 -0.207,0 -1.062,0.657 -1.9,1.46 m -10.933,2.353 c -1.043,1.257 2.108,6.987003 3.842,6.987003 0.986,0 0.619,-0.797 -0.734,-1.596 -1.856,-1.095003 -2.8,-2.851003 -2.472,-4.598003 0.289,-1.54 0.139,-1.727 -0.636,-0.793 m 6.011,2.207 c -1.43,1.316 -2.368,2.345 -2.084,2.286 0.517,-0.106 2.822,-2.184 4.246,-3.827 1.283,-1.48 0.561,-0.966 -2.162,1.541"
     id="path6" />
  <path
     style="fill:#ecc5ec;fill-rule:evenodd;stroke:none"
     inkscape:connector-curvature="0"
     d="m 62.116,42.137467 c -6.051,3.106 -26.916,21.414 -26.916,23.617 0,0.508 1.227,0.22 1.929,-0.454 0.401,-0.385 1.256,-1.15 1.9,-1.7 4.358,-3.721 6.086,-5.184 6.905,-5.845 0.513,-0.415 1.323,-1.089 1.8,-1.497 0.476,-0.408 1.746,-1.488 2.821,-2.4 1.075,-0.912 2.819,-2.434 3.874,-3.383 1.056,-0.949 2.606,-2.231 3.445,-2.849 0.839,-0.618 2.336,-1.864 3.326,-2.769 0.99,-0.905 1.929,-1.648 2.086,-1.651 0.443,-0.009 1.154,-1.534 0.814,-1.744 -0.167,-0.103 -1.059,0.201 -1.984,0.675 m 23.653,8.975 c -0.677,0.598 -2.927,2.297 -5,3.775 -2.073,1.478 -4.039,2.928 -4.369,3.224 -0.33,0.295 -1.498,1.246 -2.597,2.113 -5.14,4.058 -13.785,12.503 -13.796,13.476 -0.011,1.081 0.856,0.837 2.393,-0.673 0.77,-0.756 2.57,-2.527 4,-3.935 2.824,-2.781 5.643,-5.297 8.394,-7.492 0.965,-0.77 2.318,-1.94 3.007,-2.6 1.59,-1.523 4.91,-4.3 5.65,-4.725 0.311,-0.178 0.444,-0.521 0.296,-0.761 -0.155,-0.25 -0.087,-0.324 0.158,-0.173 0.235,0.146 0.938,-0.239 1.561,-0.855 0.624,-0.617 1.579,-1.428 2.123,-1.803 0.883,-0.61 0.904,-0.682 0.2,-0.671 -0.434,0.006 -1.343,0.501 -2.02,1.1 m -0.978,32.86 c -0.545,0.657 -1.111,1.202 -1.258,1.211 -0.515,0.033 -3.495,3.122 -3.248,3.368 0.456,0.456 0.777,0.262 2.859,-1.735 1.138,-1.091 2.313,-2.126 2.61,-2.3 0.314,-0.184 0.433,-0.614 0.284,-1.027 -0.225,-0.624 -0.378,-0.564 -1.247,0.483 m -5.807,5.255 c -0.145,0.234 -0.168,0.522 -0.051,0.64 0.287,0.286 1.067,-0.219 1.067,-0.691 0,-0.511 -0.691,-0.477 -1.016,0.051 m -1.699,1.843 c -0.504,0.568 -0.817,1.131 -0.696,1.252 0.301,0.301 1.9,-1.46 1.74,-1.917 -0.071,-0.202 -0.541,0.098 -1.044,0.665"
     id="path7" />
  <path
     style="fill-rule:evenodd;stroke:none"
     inkscape:connector-curvature="0"
     fill="#ecec100"
     d=""
     id="path8" />
</svg>
