<?xml version="1.0" encoding="UTF-8" standalone="no"?>
<!-- Created with Inkscape (http://www.inkscape.org/) -->

<svg
   xmlns:dc="http://purl.org/dc/elements/1.1/"
   xmlns:cc="http://creativecommons.org/ns#"
   xmlns:rdf="http://www.w3.org/1999/02/22-rdf-syntax-ns#"
   xmlns:svg="http://www.w3.org/2000/svg"
   xmlns="http://www.w3.org/2000/svg"
   xmlns:sodipodi="http://sodipodi.sourceforge.net/DTD/sodipodi-0.dtd"
   xmlns:inkscape="http://www.inkscape.org/namespaces/inkscape"
   version="1.1"
   id="svg2"
   xml:space="preserve"
   width="773.33331"
   height="773.34668"
   viewBox="0 0 773.33331 773.34668"
   sodipodi:docname="wordpress.svg"
   inkscape:version="0.92.4 5da689c313, 2019-01-14"><metadata
     id="metadata8"><rdf:RDF><cc:Work
         rdf:about=""><dc:format>image/svg+xml</dc:format><dc:type
           rdf:resource="http://purl.org/dc/dcmitype/StillImage" /><dc:title /></cc:Work></rdf:RDF></metadata><defs
     id="defs6" /><sodipodi:namedview
     pagecolor="#ffffff"
     bordercolor="#666666"
     borderopacity="1"
     objecttolerance="10"
     gridtolerance="10"
     guidetolerance="10"
     inkscape:pageopacity="0"
     inkscape:pageshadow="2"
     inkscape:window-width="2497"
     inkscape:window-height="1019"
     id="namedview4"
     showgrid="false"
     inkscape:zoom="0.92365476"
     inkscape:cx="-57.616831"
     inkscape:cy="415.71496"
     inkscape:window-x="63"
     inkscape:window-y="27"
     inkscape:window-maximized="1"
     inkscape:current-layer="layer1" /><g
     inkscape:groupmode="layer"
     id="layer1"
     inkscape:label="White"><ellipse
       style="fill:#ffffff;stroke-width:1.54005647"
       id="path44"
       cx="382.71881"
       cy="385.75604"
       rx="371.89224"
       ry="376.76413" /></g><g
     id="g10"
     inkscape:groupmode="layer"
     inkscape:label="Main"
     transform="matrix(1.3333333,0,0,-1.3333333,0,773.34667)"><path
       inkscape:connector-curvature="0"
       id="path14"
       style="fill:#2d73a0;fill-opacity:1;fill-rule:nonzero;stroke:none;stroke-width:0.1"
       d="m 41.223,290.016 c 0,-98.482 57.2282,-183.577 140.213,-223.9109 L 62.7613,391.262 C 48.957,360.321 41.223,326.079 41.223,290.016" /><path
       inkscape:connector-curvature="0"
       id="path16"
       style="fill:#2d73a0;fill-opacity:1;fill-rule:nonzero;stroke:none;stroke-width:0.1"
       d="m 457.955,302.567 c 0,30.747 -11.044,52.04 -20.521,68.613 -12.605,20.493 -24.423,37.848 -24.423,58.341 0,22.87 17.341,44.158 41.77,44.158 1.104,0 2.148,-0.139 3.23,-0.199 -44.27,40.548 -103.238,65.308 -168.006,65.308 -86.916,0 -163.379,-44.593 -207.8648,-112.138 5.8399,-0.175 11.3457,-0.291 16.0098,-0.291 26.021,0 66.307,3.157 66.307,3.157 13.411,0.791 14.992,-18.908 1.6,-20.493 0,0 -13.484,-1.586 -28.481,-2.372 l 90.6,-269.475 54.448,163.288 -38.77,106.192 c -13.397,0.787 -26.088,2.372 -26.088,2.372 -13.406,0.786 -11.835,21.284 1.572,20.493 0,0 41.084,-3.157 65.53,-3.157 26.018,0 66.301,3.157 66.301,3.157 13.421,0.791 14.997,-18.907 1.596,-20.493 0,0 -13.504,-1.585 -28.473,-2.372 l 89.906,-267.436 24.807,82.922 c 10.763,34.413 18.95,59.128 18.95,80.425" /><path
       inkscape:connector-curvature="0"
       id="path18"
       style="fill:#2d73a0;fill-opacity:1;fill-rule:nonzero;stroke:none;stroke-width:0.1"
       d="M 294.369,268.251 219.726,51.357 c 22.287,-6.5609 45.855,-10.1429 70.278,-10.1429 28.972,0 56.755,5.016 82.616,14.105 -0.676,1.0618 -1.281,2.1938 -1.771,3.425 l -76.48,209.5069" /><path
       inkscape:connector-curvature="0"
       id="path20"
       style="fill:#2d73a0;fill-opacity:1;fill-rule:nonzero;stroke:none;stroke-width:0.1"
       d="m 508.303,409.375 c 1.068,-7.924 1.674,-16.439 1.674,-25.583 0,-25.246 -4.715,-53.626 -18.917,-89.111 L 415.07,74.9691 C 489.032,118.1 538.779,198.229 538.779,290.016 c 0.003,43.247 -11.046,83.92 -30.476,119.359" /><path
       inkscape:connector-curvature="0"
       id="path22"
       style="fill:#2d73a0;fill-opacity:1;fill-rule:nonzero;stroke:none;stroke-width:0.1"
       d="m 290.005,13.2969 c -152.57,0 -276.7089,124.1371 -276.7089,276.7191 0,152.565 124.1299,276.691 276.7089,276.691 C 442.574,566.707 566.7,442.582 566.7,290.016 566.7,137.432 442.57,13.2969 290.005,13.2969 Z m 0,566.7141 C 130.098,580.011 0,449.917 0,290.015 0,130.09 130.093,-0.00390625 290.005,-0.00390625 449.906,-0.00390625 580.025,130.086 580.025,290.015 580.02,449.918 449.906,580.011 290.005,580.011" /></g></svg>